<?xml version="1.0" encoding="utf-8"?>
<!-- Generator: Adobe Illustrator 19.2.1, SVG Export Plug-In . SVG Version: 6.00 Build 0)  -->
<svg version="1.1" id="Layer_1" xmlns="http://www.w3.org/2000/svg" xmlns:xlink="http://www.w3.org/1999/xlink" x="0px" y="0px"
	 viewBox="0 0 100 100" style="enable-background:new 0 0 100 100;" xml:space="preserve">
<style type="text/css">
	.st0{fill:none;}
	.st1{fill:#131313;}
	.st2{fill:#202020;}
	.st3{fill:url(#SVGID_1_);}
	.st4{fill:none;stroke:#000000;stroke-miterlimit:10;}
	.st5{fill:none;stroke:#58595B;stroke-width:3;stroke-miterlimit:10;}
	.st6{fill:#58595B;}
</style>
<pattern  y="100" width="240" height="696" patternUnits="userSpaceOnUse" id="New_Pattern_Swatch_13" viewBox="0 -696 240 696" style="overflow:visible;">
	<g>
		<rect y="-696" class="st0" width="240" height="696"/>
		<g>
			<g>
				<g>
					<rect y="-696" class="st1" width="16.7" height="696"/>
					<rect x="15" y="-696" class="st2" width="18.9" height="696"/>
				</g>
			</g>
			<g>
				<g>
					<g>
						<rect x="30" y="-696" class="st1" width="16.7" height="696"/>
						<rect x="45" y="-696" class="st2" width="18.4" height="696"/>
					</g>
				</g>
			</g>
		</g>
		<g>
			<g>
				<g>
					<rect x="60" y="-696" class="st1" width="16.7" height="696"/>
					<rect x="75" y="-696" class="st2" width="18.9" height="696"/>
				</g>
			</g>
			<g>
				<g>
					<g>
						<rect x="90" y="-696" class="st1" width="16.7" height="696"/>
						<rect x="105" y="-696" class="st2" width="19.1" height="696"/>
					</g>
				</g>
			</g>
		</g>
		<g>
			<g>
				<g>
					<rect x="120" y="-696" class="st1" width="16.7" height="696"/>
					<rect x="135" y="-696" class="st2" width="18.9" height="696"/>
				</g>
			</g>
			<g>
				<g>
					<g>
						<rect x="150" y="-696" class="st1" width="16.7" height="696"/>
						<rect x="165" y="-696" class="st2" width="18.4" height="696"/>
					</g>
				</g>
			</g>
		</g>
		<g>
			<g>
				<g>
					<rect x="180" y="-696" class="st1" width="16.7" height="696"/>
					<rect x="195" y="-696" class="st2" width="18.9" height="696"/>
				</g>
			</g>
			<g>
				<g>
					<g>
						<rect x="210" y="-696" class="st1" width="16.7" height="696"/>
						<rect x="225" y="-696" class="st2" width="15" height="696"/>
					</g>
				</g>
			</g>
		</g>
	</g>
</pattern>
<g>
	
		<pattern  id="SVGID_1_" xlink:href="#New_Pattern_Swatch_13" patternTransform="matrix(0.6124 0.6124 0.6124 -0.6124 -5723.9829 -11124.6006)">
	</pattern>
	<polygon class="st3" points="25,93.3 0,50 25,6.7 75,6.7 100,50 75,93.3 	"/>
	<polygon class="st4" points="25,93.3 0,50 25,6.7 75,6.7 100,50 75,93.3 	"/>
</g>
<polygon class="st5" points="30,84.6 10,50 30,15.4 70,15.4 90,50 70,84.6 "/>
<polygon class="st6" points="50,22.3 25,47.3 29.2,51.4 47.2,33.3 47.2,77.7 52.8,77.7 52.8,33.3 70.8,51.4 75,47.3 50,22.3 "/>
</svg>
