<?xml version="1.0" encoding="utf-8"?>
<!-- Generator: Adobe Illustrator 19.2.1, SVG Export Plug-In . SVG Version: 6.00 Build 0)  -->
<svg version="1.1" id="Layer_1" xmlns="http://www.w3.org/2000/svg" xmlns:xlink="http://www.w3.org/1999/xlink" x="0px" y="0px"
	 viewBox="0 0 574.6 223.4" style="enable-background:new 0 0 574.6 223.4;" xml:space="preserve">
<style type="text/css">
	csTop_0{fill:#A0D290;stroke:#020202;stroke-width:1.5;stroke-miterlimit:10;}
	csTop_1{opacity:0.94;fill:#62BF7A;stroke:#020202;stroke-width:1.5;stroke-miterlimit:10;enable-background:new    ;}
</style>
<path class="tubeColor" d="M287.3,135.2V87c0-3.3,2-6,4.5-6l75.4-13.8c2.5,0,4.5,2.7,4.5,6v69.1c0,3.3-2,6-4.5,6l-75.4-7.2
	C289.4,141.2,287.3,138.5,287.3,135.2z"/>
<circle class="tubeColor opacity9" cx="466.8" cy="107.8" r="107.8"/>
<circle class="tubeColor" cx="466.8" cy="107.8" r="90.5"/>
<path class="tubeColor" d="M287.3,88.2v48.2c0,3.3-2,6-4.5,6l-75.4,13.8c-2.5,0-4.5-2.7-4.5-6l0-69.1c0-3.3,2-6,4.5-6l75.4,7.2
	C285.2,82.2,287.3,84.9,287.3,88.2z"/>
<circle class="tubeColor opacity9" cx="107.8" cy="115.6" r="107.8"/>
<circle class="tubeColor" cx="107.8" cy="115.6" r="90.5"/>
</svg>
