<?xml version="1.0" encoding="utf-8"?>
<!-- Generator: Adobe Illustrator 19.2.1, SVG Export Plug-In . SVG Version: 6.00 Build 0)  -->
<svg version="1.1" id="Layer_1" xmlns="http://www.w3.org/2000/svg" xmlns:xlink="http://www.w3.org/1999/xlink" x="0px" y="0px"
	 viewBox="0 0 362.2 548.8" style="enable-background:new 0 0 362.2 548.8;" xml:space="preserve">
<style type="text/css">
	.lidBox_0{fill:#414141;stroke:#010101;stroke-miterlimit:10;}
	.lidBox_1{fill:#E34126;stroke:#EF3E25;stroke-miterlimit:10;}
	.lidBox_2{opacity:0.5;fill:#B8E4F4;stroke:#010101;stroke-miterlimit:10;enable-background:new    ;}
	.lidBox_3{opacity:0.35;fill:#B8E4F4;stroke:#010101;stroke-miterlimit:10;enable-background:new    ;}
	.lidBox_4{fill:#EF3E25;}
</style>
<g>
	<path class="lidBox_0" d="M147.1,481.1h22.7c1.3,0,2.4,1.2,2.4,2.7l0,0c0,1.5-1.1,2.7-2.4,2.7h-22.7c-1.3,0-2.4-1.2-2.4-2.7l0,0
		C144.8,482.4,145.8,481.1,147.1,481.1z"/>
	<rect x="167.4" y="481.1" class="lidBox_0" width="4.9" height="5.4"/>
</g>
<g>
	<g>
		<path class="lidBox_1" d="M147.2,225.8h22c1.5,0,2.7,1.4,2.7,3.1s-1.2,3.1-2.7,3.1h-22c-1.5,0-2.7-1.4-2.7-3.1S145.7,225.8,147.2,225.8
			z"/>
	</g>
	<rect x="167.1" y="225.7" class="lidBox_1" width="4.9" height="6.2"/>
</g>
<rect x="166.1" y="184.4" class="lidBox_2" width="196.1" height="364.3"/>
<rect x="165.9" y="184.5" class="lidBox_3" width="7.7" height="364.3"/>
<path class="lidBox_0" d="M149.1,476c-14.8-50.2-23.9-105.5-26.6-162c-1.3-27.7-0.9-55.4,0.5-83.1c1.4-27.7,3.5-55.8,1.6-83.6
	c-1.7-25.1-6.8-60.7-22-69.7c-3.6-2.1-5.1,7.9-1.5,10c6.8,4,10.6,16.5,13.2,27.6c2.8,12.2,4.3,25.2,4.9,38.2c1.2,27-0.8,54.1-2.1,81
	c-2.7,54.2-0.3,108.6,7.9,161c4.7,29.6,11.1,58.3,19.1,85.6C145.8,487.1,150.9,481.9,149.1,476z"/>
<path class="lidBox_4" d="M149.2,222.2c-6.1-0.8-3.8-20.2-3.4-26.8c0.7-11.5,1.3-23,2-34.5c1.2-20.2,4.3-43.2,0.4-62.9
	c-7.3-37.1-30.2-50-50.3-48.5c-4,0.3-4,11.4,0,11.1c11.2-0.8,22.9,2,32.4,13.6c8.7,10.6,13.6,27.1,13.4,45.9
	c-0.3,22.2-2.4,44.7-3.6,66.7c-0.9,15.6-4.1,44.9,9.1,46.5C153.2,233.8,153.2,222.7,149.2,222.2z"/>
</svg>
