<?xml version="1.0" encoding="utf-8"?>
<!-- Generator: Adobe Illustrator 19.2.1, SVG Export Plug-In . SVG Version: 6.00 Build 0)  -->
<svg version="1.1" id="Layer_1" xmlns="http://www.w3.org/2000/svg" xmlns:xlink="http://www.w3.org/1999/xlink" x="0px" y="0px"
	 viewBox="0 0 152 571.2" style="enable-background:new 0 0 152 571.2;" xml:space="preserve">
<style type="text/css">
	.micropipette_0{fill:#E6E7E8;stroke:#000000;stroke-width:3.5;stroke-linecap:round;stroke-miterlimit:10;}
	.micropipette_1{fill:#ECEAEB;stroke:#010101;stroke-width:3.9705;stroke-linecap:round;stroke-linejoin:round;}
	.micropipette_2{fill:url(#rect1307_1_);stroke:#010101;stroke-width:3.9705;stroke-linecap:round;stroke-linejoin:round;}
	.micropipette_3{fill:url(#rect2182_1_);stroke:#010101;stroke-width:3.9705;stroke-linecap:round;stroke-linejoin:round;}
	.micropipette_4{fill:url(#rect2184_1_);stroke:#010101;stroke-width:3.9705;stroke-linecap:round;stroke-linejoin:round;}
	.micropipette_5{fill:url(#rect2186_1_);stroke:#010101;stroke-width:3.9705;stroke-linecap:round;stroke-linejoin:round;}
	.micropipette_6{fill:url(#rect3061_1_);stroke:#010101;stroke-width:3.9705;stroke-linecap:round;stroke-linejoin:round;}
	.micropipette_7{fill:#EEF8FA;stroke:#010101;stroke-width:3.9705;stroke-linecap:round;stroke-linejoin:round;}
	.micropipette_8{fill:url(#rect11166_1_);}
	.micropipette_9{fill:url(#rect12922_1_);}
	.micropipette_10{fill:url(#rect12926_1_);}
	.micropipette_11{fill:url(#rect12928_1_);}
	.micropipette_12{fill:url(#rect12934_1_);}
	.micropipette_13{fill:url(#rect12936_1_);}
	.micropipette_14{fill:url(#rect12942_1_);}
	.micropipette_15{fill:url(#rect12944_1_);}
	.micropipette_16{fill:url(#path12959_1_);}
	.micropipette_17{fill:url(#path12977_1_);}
	.micropipette_18{fill:url(#path12981_1_);}
	.micropipette_19{fill:url(#path12983_1_);}
	.micropipette_20{fill:url(#path12989_1_);}
	.micropipette_21{fill:url(#path12991_1_);}
	.micropipette_22{fill:url(#path12993_1_);}
	.micropipette_23{fill:url(#path12995_1_);}
	.micropipette_24{fill:url(#path13005_1_);}
	.micropipette_25{fill:url(#path13007_1_);}
	.micropipette_26{fill:url(#path13009_1_);}
	.micropipette_27{fill:url(#path13011_1_);}
	.micropipette_28{fill:url(#path13021_1_);}
	.micropipette_29{fill:url(#path13023_1_);}
	.micropipette_30{fill:url(#path13025_1_);}
	.micropipette_31{fill:url(#path13027_1_);}
	.micropipette_32{fill:url(#path13037_1_);}
	.micropipette_33{fill:url(#path13039_1_);}
</style>
<rect x="72.2" y="13.5" class="micropipette_0" width="31" height="48.3"/>
<g>
	<path id="rect6594" class="micropipette_1" d="M112,53.6h24v11.2h-24V53.6z"/>
	
		<linearGradient id="rect1307_1_" gradientUnits="userSpaceOnUse" x1="-763.8779" y1="439.0996" x2="-765.71" y2="439.0996" gradientTransform="matrix(19.703 0 0 62.7448 15145.6348 -27004.8047)">
		<stop  offset="0" style="stop-color:#E7E5E4"/>
		<stop  offset="1" style="stop-color:#898683"/>
	</linearGradient>
	<rect id="rect1307" x="88.4" y="525.6" class="micropipette_2" width="13.1" height="41.7"/>
	
		<linearGradient id="rect2182_1_" gradientUnits="userSpaceOnUse" x1="-786.1185" y1="436.6242" x2="-787.2252" y2="436.6242" gradientTransform="matrix(36.899 0 0 168.9544 29101.9551 -73293.6328)">
		<stop  offset="0" style="stop-color:#E7E5E4"/>
		<stop  offset="1" style="stop-color:#898683"/>
	</linearGradient>
	<rect id="rect2182" x="82.7" y="419.9" class="micropipette_3" width="24.5" height="112.2"/>
	
		<linearGradient id="rect2184_1_" gradientUnits="userSpaceOnUse" x1="-795.5961" y1="443.0329" x2="-796.546" y2="442.5938" gradientTransform="matrix(58.882 0 0 40.9284 46943.3359 -17718.4922)">
		<stop  offset="0" style="stop-color:#E7E5E4"/>
		<stop  offset="1" style="stop-color:#898683"/>
	</linearGradient>
	<rect id="rect2184" x="75.4" y="399.9" class="micropipette_4" width="39.1" height="27.2"/>
	
		<linearGradient id="rect2186_1_" gradientUnits="userSpaceOnUse" x1="-798.0726" y1="437.7765" x2="-798.9125" y2="437.7765" gradientTransform="matrix(69.5071 0 0 122.7106 55566.6719 -53359.3008)">
		<stop  offset="0" style="stop-color:#E7E5E4"/>
		<stop  offset="1" style="stop-color:#898683"/>
	</linearGradient>
	<rect id="rect2186" x="71.9" y="319.8" class="micropipette_5" width="46.2" height="81.5"/>
	
		<linearGradient id="rect3061_1_" gradientUnits="userSpaceOnUse" x1="-806.9477" y1="435.8939" x2="-807.6514" y2="435.8939" gradientTransform="matrix(213.2016 0 0 422.9696 172160.4688 -184185.875)">
		<stop  offset="0" style="stop-color:#E7E5E4"/>
		<stop  offset="1" style="stop-color:#898683"/>
	</linearGradient>
	<path id="rect3061" class="micropipette_6" d="M50.2,43.6c-14.1,0.1-28.6,1.3-43.5,3.8c-2.5,0.6-3,6.6,3.2,5.7c28.1-5.6,54.7-1.6,53.7,11.4
		v260h83V61.3h-40.4V43.9C106.2,43.9,64.3,43.4,50.2,43.6z"/>
	<path id="rect5718" class="micropipette_1" d="M107.6,43l39.8,6v6h-39.2L107.6,43z"/>
	<path id="rect6596" class="micropipette_7" d="M126.7,72.6h19v56.2h-19V72.6z"/>
	
		<linearGradient id="rect11166_1_" gradientUnits="userSpaceOnUse" x1="-801.5515" y1="470.8823" x2="-801.5515" y2="467.4578" gradientTransform="matrix(93.5602 0 0 14.3859 75088.2734 -6683.5493)">
		<stop  offset="0" style="stop-color:#E7E5E4"/>
		<stop  offset="1" style="stop-color:#898683"/>
	</linearGradient>
	<path id="rect11166" class="micropipette_8" d="M63.9,72.3H126v9.6H63.9V72.3z"/>
	
		<linearGradient id="rect12922_1_" gradientUnits="userSpaceOnUse" x1="-801.5515" y1="470.5541" x2="-801.5515" y2="467.1296" gradientTransform="matrix(93.5602 0 0 14.3859 75088.2734 -6669.4868)">
		<stop  offset="0" style="stop-color:#E7E5E4"/>
		<stop  offset="1" style="stop-color:#898683"/>
	</linearGradient>
	<path id="rect12922" class="micropipette_9" d="M63.9,81.7H126v9.5H63.9V81.7z"/>
	
		<linearGradient id="rect12926_1_" gradientUnits="userSpaceOnUse" x1="-801.5515" y1="470.2181" x2="-801.5515" y2="466.7937" gradientTransform="matrix(93.5602 0 0 14.3859 75088.2734 -6655.0649)">
		<stop  offset="0" style="stop-color:#E7E5E4"/>
		<stop  offset="1" style="stop-color:#898683"/>
	</linearGradient>
	<path id="rect12926" class="micropipette_10" d="M63.9,91.3H126v9.6H63.9V91.3z"/>
	
		<linearGradient id="rect12928_1_" gradientUnits="userSpaceOnUse" x1="-801.5515" y1="469.8899" x2="-801.5515" y2="466.4654" gradientTransform="matrix(93.5602 0 0 14.3859 75088.2734 -6641.0024)">
		<stop  offset="0" style="stop-color:#E7E5E4"/>
		<stop  offset="1" style="stop-color:#898683"/>
	</linearGradient>
	<path id="rect12928" class="micropipette_11" d="M63.9,100.6H126v9.6H63.9V100.6z"/>
	
		<linearGradient id="rect12934_1_" gradientUnits="userSpaceOnUse" x1="-801.5515" y1="469.5432" x2="-801.5515" y2="466.1187" gradientTransform="matrix(93.5602 0 0 14.3859 75088.2734 -6626.1743)">
		<stop  offset="0" style="stop-color:#E7E5E4"/>
		<stop  offset="1" style="stop-color:#898683"/>
	</linearGradient>
	<path id="rect12934" class="micropipette_12" d="M63.9,110.4H126v9.6H63.9V110.4z"/>
	
		<linearGradient id="rect12936_1_" gradientUnits="userSpaceOnUse" x1="-801.5515" y1="469.2145" x2="-801.5515" y2="465.79" gradientTransform="matrix(93.5602 0 0 14.3859 75088.2734 -6612.1196)">
		<stop  offset="0" style="stop-color:#E7E5E4"/>
		<stop  offset="1" style="stop-color:#898683"/>
	</linearGradient>
	<path id="rect12936" class="micropipette_13" d="M63.9,119.8H126v9.6H63.9V119.8z"/>
	
		<linearGradient id="rect12942_1_" gradientUnits="userSpaceOnUse" x1="-803.9829" y1="468.8958" x2="-803.9829" y2="465.4679" gradientTransform="matrix(122.7798 0 0 14.3859 98817.5625 -6598.4087)">
		<stop  offset="0" style="stop-color:#E7E5E4"/>
		<stop  offset="1" style="stop-color:#898683"/>
	</linearGradient>
	<path id="rect12942" class="micropipette_14" d="M63.9,128.9h81.6v9.6H63.9V128.9z"/>
	
		<linearGradient id="rect12944_1_" gradientUnits="userSpaceOnUse" x1="-796.647" y1="468.567" x2="-796.647" y2="465.1424" gradientTransform="matrix(63.2168 0 0 14.3859 50446.3789 -6584.3462)">
		<stop  offset="0" style="stop-color:#E7E5E4"/>
		<stop  offset="1" style="stop-color:#898683"/>
	</linearGradient>
	<path id="rect12944" class="micropipette_15" d="M63.9,138.2h42c-3.5,1.6-7.1,3.1-6.3,9.6H63.9V138.2z"/>
	
		<linearGradient id="path12959_1_" gradientUnits="userSpaceOnUse" x1="-793.9555" y1="468.2198" x2="-793.9555" y2="464.7953" gradientTransform="matrix(53.6643 0 0 14.3859 42688.7656 -6569.4712)">
		<stop  offset="0" style="stop-color:#E7E5E4"/>
		<stop  offset="1" style="stop-color:#898683"/>
	</linearGradient>
	<path id="path12959" class="micropipette_16" d="M63.9,148.1h35.6v9.6H63.9V148.1z"/>
	
		<linearGradient id="path12977_1_" gradientUnits="userSpaceOnUse" x1="-793.9555" y1="467.8898" x2="-793.9555" y2="464.4653" gradientTransform="matrix(53.6643 0 0 14.3859 42688.7656 -6555.3618)">
		<stop  offset="0" style="stop-color:#E7E5E4"/>
		<stop  offset="1" style="stop-color:#898683"/>
	</linearGradient>
	<path id="path12977" class="micropipette_17" d="M63.9,157.5h35.6v9.6H63.9V157.5z"/>
	
		<linearGradient id="path12981_1_" gradientUnits="userSpaceOnUse" x1="-793.9555" y1="467.5437" x2="-793.9555" y2="464.1191" gradientTransform="matrix(53.6643 0 0 14.3859 42688.7656 -6540.5024)">
		<stop  offset="0" style="stop-color:#E7E5E4"/>
		<stop  offset="1" style="stop-color:#898683"/>
	</linearGradient>
	<path id="path12981" class="micropipette_18" d="M63.9,167.4h35.6v9.6H63.9V167.4z"/>
	
		<linearGradient id="path12983_1_" gradientUnits="userSpaceOnUse" x1="-793.9555" y1="467.2147" x2="-793.9555" y2="463.7893" gradientTransform="matrix(53.6643 0 0 14.3859 42688.7656 -6526.4087)">
		<stop  offset="0" style="stop-color:#E7E5E4"/>
		<stop  offset="1" style="stop-color:#898683"/>
	</linearGradient>
	<path id="path12983" class="micropipette_19" d="M63.9,176.7h35.6v9.6H63.9V176.7z"/>
	
		<linearGradient id="path12989_1_" gradientUnits="userSpaceOnUse" x1="-793.9555" y1="466.8581" x2="-793.9555" y2="463.4336" gradientTransform="matrix(53.6643 0 0 14.3859 42688.7656 -6511.1587)">
		<stop  offset="0" style="stop-color:#E7E5E4"/>
		<stop  offset="1" style="stop-color:#898683"/>
	</linearGradient>
	<path id="path12989" class="micropipette_20" d="M63.9,186.8h35.6v9.6H63.9V186.8z"/>
	
		<linearGradient id="path12991_1_" gradientUnits="userSpaceOnUse" x1="-793.9555" y1="466.5295" x2="-793.9555" y2="463.104" gradientTransform="matrix(53.6643 0 0 14.3859 42688.7656 -6497.0493)">
		<stop  offset="0" style="stop-color:#E7E5E4"/>
		<stop  offset="1" style="stop-color:#898683"/>
	</linearGradient>
	<path id="path12991" class="micropipette_21" d="M63.9,196.2h35.6v9.6H63.9V196.2z"/>
	
		<linearGradient id="path12993_1_" gradientUnits="userSpaceOnUse" x1="-793.9555" y1="466.1833" x2="-793.9555" y2="462.7588" gradientTransform="matrix(53.6643 0 0 14.3859 42688.7656 -6482.1899)">
		<stop  offset="0" style="stop-color:#E7E5E4"/>
		<stop  offset="1" style="stop-color:#898683"/>
	</linearGradient>
	<path id="path12993" class="micropipette_22" d="M63.9,206.1h35.6v9.6H63.9V206.1z"/>
	
		<linearGradient id="path12995_1_" gradientUnits="userSpaceOnUse" x1="-793.9555" y1="465.8539" x2="-793.9555" y2="462.4294" gradientTransform="matrix(53.6643 0 0 14.3859 42688.7656 -6468.104)">
		<stop  offset="0" style="stop-color:#E7E5E4"/>
		<stop  offset="1" style="stop-color:#898683"/>
	</linearGradient>
	<path id="path12995" class="micropipette_23" d="M63.9,215.5h35.6v9.6H63.9V215.5z"/>
	
		<linearGradient id="path13005_1_" gradientUnits="userSpaceOnUse" x1="-793.9555" y1="465.4945" x2="-793.9555" y2="462.07" gradientTransform="matrix(53.6643 0 0 14.3859 42688.7656 -6452.7056)">
		<stop  offset="0" style="stop-color:#E7E5E4"/>
		<stop  offset="1" style="stop-color:#898683"/>
	</linearGradient>
	<path id="path13005" class="micropipette_24" d="M63.9,225.7h35.6v9.6H63.9V225.7z"/>
	
		<linearGradient id="path13007_1_" gradientUnits="userSpaceOnUse" x1="-793.9555" y1="465.1662" x2="-793.9555" y2="461.7382" gradientTransform="matrix(53.6643 0 0 14.3859 42688.7656 -6438.6118)">
		<stop  offset="0" style="stop-color:#E7E5E4"/>
		<stop  offset="1" style="stop-color:#898683"/>
	</linearGradient>
	<path id="path13007" class="micropipette_25" d="M63.9,235h35.6v9.6H63.9V235z"/>
	
		<linearGradient id="path13009_1_" gradientUnits="userSpaceOnUse" x1="-793.9555" y1="464.8193" x2="-793.9555" y2="461.3949" gradientTransform="matrix(53.6643 0 0 14.3859 42688.7656 -6423.7524)">
		<stop  offset="0" style="stop-color:#E7E5E4"/>
		<stop  offset="1" style="stop-color:#898683"/>
	</linearGradient>
	<path id="path13009" class="micropipette_26" d="M63.9,244.9h35.6v9.6H63.9V244.9z"/>
	
		<linearGradient id="path13011_1_" gradientUnits="userSpaceOnUse" x1="-793.9555" y1="464.4891" x2="-793.9555" y2="461.067" gradientTransform="matrix(53.6643 0 0 14.3859 42688.7656 -6409.6587)">
		<stop  offset="0" style="stop-color:#E7E5E4"/>
		<stop  offset="1" style="stop-color:#898683"/>
	</linearGradient>
	<path id="path13011" class="micropipette_27" d="M63.9,254.3h35.6v9.6H63.9V254.3z"/>
	
		<linearGradient id="path13021_1_" gradientUnits="userSpaceOnUse" x1="-793.9555" y1="464.1178" x2="-793.9555" y2="460.6924" gradientTransform="matrix(53.6643 0 0 14.3859 42688.7656 -6393.7212)">
		<stop  offset="0" style="stop-color:#E7E5E4"/>
		<stop  offset="1" style="stop-color:#898683"/>
	</linearGradient>
	<path id="path13021" class="micropipette_28" d="M63.9,264.9h35.6v9.6H63.9V264.9z"/>
	
		<linearGradient id="path13023_1_" gradientUnits="userSpaceOnUse" x1="-793.9555" y1="463.7908" x2="-793.9555" y2="460.3596" gradientTransform="matrix(53.6643 0 0 14.3859 42688.7656 -6379.6274)">
		<stop  offset="0" style="stop-color:#E7E5E4"/>
		<stop  offset="1" style="stop-color:#898683"/>
	</linearGradient>
	<path id="path13023" class="micropipette_29" d="M63.9,274.2h35.6v9.6H63.9V274.2z"/>
	
		<linearGradient id="path13025_1_" gradientUnits="userSpaceOnUse" x1="-793.9555" y1="463.4412" x2="-793.9555" y2="460.0168" gradientTransform="matrix(53.6643 0 0 14.386 42688.7656 -6364.8125)">
		<stop  offset="0" style="stop-color:#E7E5E4"/>
		<stop  offset="1" style="stop-color:#898683"/>
	</linearGradient>
	<path id="path13025" class="micropipette_30" d="M63.9,284.1h35.6v9.6H63.9V284.1z"/>
	
		<linearGradient id="path13027_1_" gradientUnits="userSpaceOnUse" x1="-793.9555" y1="463.113" x2="-793.9555" y2="459.6885" gradientTransform="matrix(53.6643 0 0 14.3859 42688.7656 -6350.6431)">
		<stop  offset="0" style="stop-color:#E7E5E4"/>
		<stop  offset="1" style="stop-color:#898683"/>
	</linearGradient>
	<path id="path13027" class="micropipette_31" d="M63.9,293.5h35.6v9.6H63.9V293.5z"/>
	
		<linearGradient id="path13037_1_" gradientUnits="userSpaceOnUse" x1="-793.9555" y1="462.7574" x2="-793.9555" y2="459.3329" gradientTransform="matrix(53.6643 0 0 14.386 42688.7656 -6335.4531)">
		<stop  offset="0" style="stop-color:#E7E5E4"/>
		<stop  offset="1" style="stop-color:#898683"/>
	</linearGradient>
	<path id="path13037" class="micropipette_32" d="M63.9,303.6h35.6v9.6H63.9V303.6z"/>
	
		<linearGradient id="path13039_1_" gradientUnits="userSpaceOnUse" x1="-793.9555" y1="462.4279" x2="-793.9555" y2="459.0034" gradientTransform="matrix(53.6643 0 0 14.3859 42688.7656 -6321.3149)">
		<stop  offset="0" style="stop-color:#E7E5E4"/>
		<stop  offset="1" style="stop-color:#898683"/>
	</linearGradient>
	<path id="path13039" class="micropipette_33" d="M63.9,313h35.6v9.6H63.9V313z"/>
	<title>Layer 1</title>
</g>
<path class="micropipette_0" d="M105.4,13.5H69.9c-1.3,0-2.2-2.1-2.2-4.4l0,0c0-2.5,1-4.4,2.2-4.4h35.5c1.3,0,2.2,2.1,2.2,4.4l0,0
	C107.6,11.4,106.6,13.5,105.4,13.5z"/>
</svg>
