<?xml version="1.0" encoding="utf-8"?>
<!-- Generator: Adobe Illustrator 19.2.1, SVG Export Plug-In . SVG Version: 6.00 Build 0)  -->
<svg version="1.1" id="Layer_1" xmlns="http://www.w3.org/2000/svg" xmlns:xlink="http://www.w3.org/1999/xlink" x="0px" y="0px"
	 viewBox="0 0 45 130.3" style="enable-background:new 0 0 45 130.3;" xml:space="preserve">
<style type="text/css">
	.micropipetteTopView_0{fill:url(#SVGID_1_);stroke:#020202;stroke-miterlimit:10;}
	.micropipetteTopView_1{fill:#ECEAEB;stroke:#020202;stroke-miterlimit:10;}
	.micropipetteTopView_2{fill:#EAE72A;stroke:#010101;stroke-linecap:round;stroke-miterlimit:10;}
</style>
<linearGradient id="SVGID_1_" gradientUnits="userSpaceOnUse" x1="89.8909" y1="829.7743" x2="134.8909" y2="829.7743" gradientTransform="matrix(1 0 0 -1 -89.8909 920.0243)">
	<stop  offset="0" style="stop-color:#E7E5E4"/>
	<stop  offset="1" style="stop-color:#898683"/>
</linearGradient>
<path class="micropipetteTopView_0" d="M29.6,129.2l-16.4-0.5c-1.9-0.8,2.6-1-3.9-7L0,64.2c0-7.1,5.4-12.9,12-12.9h21c6.6,0,12,5.8,12,12.9L36.2,119
	C28,125.4,31.6,128.9,29.6,129.2z"/>
<path class="micropipetteTopView_1" d="M45,55.1c0,30.4-10.1,40.4-22.5,40.4S0,85.5,0,55.1C0,24.7,10.1,0,22.5,0S45,24.7,45,55.1z"/>
<circle class="micropipetteTopView_2" cx="22.5" cy="73.1" r="16.3"/>
<path class="micropipetteTopView_1" d="M25.3,130.3h-6.9c-4.2-0.6-7.7-2-8.7-6.3l-4-18.3c0-5,4.1-9.2,9.1-9.2l15.3,0c5,0,9.1,4.1,9.1,9.2l-3.9,17
	C33.9,127.4,29.6,130.1,25.3,130.3z"/>
</svg>
