<?xml version="1.0" encoding="utf-8"?>
<!-- Generator: Adobe Illustrator 19.2.1, SVG Export Plug-In . SVG Version: 6.00 Build 0)  -->
<svg version="1.1" id="Layer_1" xmlns="http://www.w3.org/2000/svg" xmlns:xlink="http://www.w3.org/1999/xlink" x="0px" y="0px"
	 viewBox="0 0 98.7 329.2" style="enable-background:new 0 0 98.7 329.2;" xml:space="preserve">
<style type="text/css">
	.powerSupplyTop_0{opacity:0.7;fill:#010101;stroke:#010101;stroke-miterlimit:10;enable-background:new    ;}
	.powerSupplyTop_1{opacity:0.85;fill:#E12E27;stroke:#010101;stroke-miterlimit:10;enable-background:new    ;}
	.powerSupplyTop_2{fill:#EBE6E5;stroke:#010101;stroke-miterlimit:10;}
</style>
<path class="powerSupplyTop_0" d="M98.7,294v12.9c0,1.7-1.4,3.1-3.1,3.1l0,0c-1.7,0-3.1-1.4-3.1-3.1V294c0-1.7,1.4-3.1,3.1-3.1l0,0
	C97.3,290.8,98.7,292.3,98.7,294z"/>
<path class="powerSupplyTop_1" d="M98.7,273.4v12.5c0,1.7-1.4,3.1-3.1,3.1l0,0c-1.7,0-3.1-1.4-3.1-3.1v-12.5c0-1.7,1.4-3.1,3.1-3.1l0,0
	C97.3,270.3,98.7,271.7,98.7,273.4z"/>
<path class="powerSupplyTop_0" d="M98.7,231.2v12.9c0,1.7-1.4,3.1-3.1,3.1l0,0c-1.7,0-3.1-1.4-3.1-3.1v-12.9c0-1.7,1.4-3.1,3.1-3.1l0,0
	C97.3,228,98.7,229.5,98.7,231.2z"/>
<path class="powerSupplyTop_1" d="M98.7,210.6v12.5c0,1.7-1.4,3.1-3.1,3.1l0,0c-1.7,0-3.1-1.4-3.1-3.1v-12.5c0-1.7,1.4-3.1,3.1-3.1l0,0
	C97.3,207.5,98.7,208.9,98.7,210.6z"/>
<path class="powerSupplyTop_0" d="M98.7,168.4v12.9c0,1.7-1.4,3.1-3.1,3.1l0,0c-1.7,0-3.1-1.4-3.1-3.1v-12.9c0-1.7,1.4-3.1,3.1-3.1l0,0
	C97.3,165.3,98.7,166.7,98.7,168.4z"/>
<path class="powerSupplyTop_1" d="M98.7,147.9v12.5c0,1.7-1.4,3.1-3.1,3.1l0,0c-1.7,0-3.1-1.4-3.1-3.1v-12.5c0-1.7,1.4-3.1,3.1-3.1l0,0
	C97.3,144.7,98.7,146.1,98.7,147.9z"/>
<path class="powerSupplyTop_0" d="M98.7,107v12.9c0,1.7-1.4,3.1-3.1,3.1l0,0c-1.7,0-3.1-1.4-3.1-3.1V107c0-1.7,1.4-3.1,3.1-3.1l0,0
	C97.3,103.8,98.7,105.2,98.7,107z"/>
<path class="powerSupplyTop_1" d="M98.7,86.4v12.5c0,1.7-1.4,3.1-3.1,3.1l0,0c-1.7,0-3.1-1.4-3.1-3.1V86.4c0-1.7,1.4-3.1,3.1-3.1l0,0
	C97.3,83.3,98.7,84.7,98.7,86.4z"/>
<path class="powerSupplyTop_0" d="M98.7,46.2v12.9c0,1.7-1.4,3.1-3.1,3.1l0,0c-1.7,0-3.1-1.4-3.1-3.1V46.2c0-1.7,1.4-3.1,3.1-3.1l0,0
	C97.3,43.1,98.7,44.5,98.7,46.2z"/>
<path class="powerSupplyTop_1" d="M98.7,25.7v12.5c0,1.7-1.4,3.1-3.1,3.1l0,0c-1.7,0-3.1-1.4-3.1-3.1V25.7c0-1.7,1.4-3.1,3.1-3.1l0,0
	C97.3,22.5,98.7,23.9,98.7,25.7z"/>
<path class="powerSupplyTop_2" d="M95.6,6.9v315.4c0,3.8-2.8,6.9-6.3,6.9h-83c-3.5,0-6.3-3.1-6.3-6.9L0,6.9C0,3.1,2.8,0,6.3,0l83.1,0
	C92.7,0,95.6,3.1,95.6,6.9z"/>
</svg>
