<?xml version="1.0" encoding="utf-8"?>
<!-- Generator: Adobe Illustrator 19.2.1, SVG Export Plug-In . SVG Version: 6.00 Build 0)  -->
<svg version="1.1" id="Layer_1" xmlns="http://www.w3.org/2000/svg" xmlns:xlink="http://www.w3.org/1999/xlink" x="0px" y="0px"
	 viewBox="0 0 572.9 223.3" style="enable-background:new 0 0 572.9 223.3;" xml:space="preserve">
<style type="text/css">
	.s3Top_0{fill:#B0529F;stroke:#020202;stroke-width:1.5;stroke-miterlimit:10;}
	.s3Top_1{opacity:0.6;fill:#B0529F;stroke:#020202;stroke-width:1.5;stroke-miterlimit:10;enable-background:new    ;}
</style>
<path class="s3Top_0" d="M285.6,135.2V87c0-3.3,2-6,4.5-6l75.4-13.8c2.5,0,4.5,2.7,4.5,6v69.1c0,3.3-2,6-4.5,6l-75.4-7.2
	C287.7,141.2,285.6,138.5,285.6,135.2z"/>
<circle class="s3Top_0" cx="465.1" cy="107.8" r="107.8"/>
<circle class="s3Top_1" cx="465.1" cy="107.8" r="90.5"/>
<path class="s3Top_0" d="M287.3,88.1v48.2c0,3.3-2,6-4.5,6l-75.4,13.8c-2.5,0-4.5-2.7-4.5-6l0-69.1c0-3.3,2-6,4.5-6l75.4,7.2
	C285.2,82.1,287.3,84.8,287.3,88.1z"/>
<circle class="s3Top_0" cx="107.8" cy="115.5" r="107.8"/>
<circle class="s3Top_1" cx="107.8" cy="115.5" r="90.5"/>
</svg>
