
<svg version="1.1" id="Layer_1" xmlns="http://www.w3.org/2000/svg" xmlns:xlink="http://www.w3.org/1999/xlink" x="0px" y="0px"
	 viewBox="0 0 154.4 106.3" style="enable-background:new 0 0 154.4 106.3;" xml:space="preserve">
<style type="text/css">
	.st0{fill:#4265B0;stroke:#000000;stroke-miterlimit:10;}
	.st1{fill:#B3B1A2;}
	.st2{fill:#D4D3CA;fill-opacity:0.8;enable-background:new    ;}
    .st3{fill:#5A585A;}
    .st4{opacity:0;}
</style>
<path class="st0" d="M142.4,105.1H12c-6.6,0-12-5.4-12-12V12C0,5.4,5.4,0,12,0h130.4c6.6,0,12,5.4,12,12v81.1
	C154.4,99.7,149,105.1,142.4,105.1z"/>
<title>Layer 1</title>
<g>

        <g class="tipTop" id='tip0_0'>

	       <g >
           <rect  class="st4" x="3.950000" y="3.950000" width="12.100000" height="12.100000" />
		  <ellipse class="st1"  cx="10.000000" cy="10.000000" rx="5.3" ry="5.3"/>
	       
	       <circle class="st2"  cx="10.000000" cy="10.000000"  r="4.1"/>
           </g>
        </g>
        
        <g class="tipTop" id='tip0_1'>

	       <g >
           <rect  class="st4" x="3.950000" y="16.050000" width="12.100000" height="12.100000" />
		  <ellipse class="st1"  cx="10.000000" cy="22.100000" rx="5.3" ry="5.3"/>
	       
	       <circle class="st2"  cx="10.000000" cy="22.100000"  r="4.1"/>
           </g>
        </g>
        
        <g class="tipTop" id='tip0_2'>

	       <g >
           <rect  class="st4" x="3.950000" y="28.150000" width="12.100000" height="12.100000" />
		  <ellipse class="st1"  cx="10.000000" cy="34.200000" rx="5.3" ry="5.3"/>
	       
	       <circle class="st2"  cx="10.000000" cy="34.200000"  r="4.1"/>
           </g>
        </g>
        
        <g class="tipTop" id='tip0_3'>

	       <g >
           <rect  class="st4" x="3.950000" y="40.250000" width="12.100000" height="12.100000" />
		  <ellipse class="st1"  cx="10.000000" cy="46.300000" rx="5.3" ry="5.3"/>
	       
	       <circle class="st2"  cx="10.000000" cy="46.300000"  r="4.1"/>
           </g>
        </g>
        
        <g class="tipTop" id='tip0_4'>

	       <g >
           <rect  class="st4" x="3.950000" y="52.350000" width="12.100000" height="12.100000" />
		  <ellipse class="st1"  cx="10.000000" cy="58.400000" rx="5.3" ry="5.3"/>
	       
	       <circle class="st2"  cx="10.000000" cy="58.400000"  r="4.1"/>
           </g>
        </g>
        
        <g class="tipTop" id='tip0_5'>

	       <g >
           <rect  class="st4" x="3.950000" y="64.450000" width="12.100000" height="12.100000" />
		  <ellipse class="st1"  cx="10.000000" cy="70.500000" rx="5.3" ry="5.3"/>
	       
	       <circle class="st2"  cx="10.000000" cy="70.500000"  r="4.1"/>
           </g>
        </g>
        
        <g class="tipTop" id='tip0_6'>

	       <g >
           <rect  class="st4" x="3.950000" y="76.550000" width="12.100000" height="12.100000" />
		  <ellipse class="st1"  cx="10.000000" cy="82.600000" rx="5.3" ry="5.3"/>
	       
	       <circle class="st2"  cx="10.000000" cy="82.600000"  r="4.1"/>
           </g>
        </g>
        
        <g class="tipTop" id='tip0_7'>

	       <g >
           <rect  class="st4" x="3.950000" y="88.650000" width="12.100000" height="12.100000" />
		  <ellipse class="st1"  cx="10.000000" cy="94.700000" rx="5.3" ry="5.3"/>
	       
	       <circle class="st2"  cx="10.000000" cy="94.700000"  r="4.1"/>
           </g>
        </g>
        
        <g class="tipTop" id='tip1_0'>

	       <g >
           <rect  class="st4" x="16.050000" y="3.950000" width="12.100000" height="12.100000" />
		  <ellipse class="st1"  cx="22.100000" cy="10.000000" rx="5.3" ry="5.3"/>
	       
	       <circle class="st2"  cx="22.100000" cy="10.000000"  r="4.1"/>
           </g>
        </g>
        
        <g class="tipTop" id='tip1_1'>

	       <g >
           <rect  class="st4" x="16.050000" y="16.050000" width="12.100000" height="12.100000" />
		  <ellipse class="st1"  cx="22.100000" cy="22.100000" rx="5.3" ry="5.3"/>
	       
	       <circle class="st2"  cx="22.100000" cy="22.100000"  r="4.1"/>
           </g>
        </g>
        
        <g class="tipTop" id='tip1_2'>

	       <g >
           <rect  class="st4" x="16.050000" y="28.150000" width="12.100000" height="12.100000" />
		  <ellipse class="st1"  cx="22.100000" cy="34.200000" rx="5.3" ry="5.3"/>
	       
	       <circle class="st2"  cx="22.100000" cy="34.200000"  r="4.1"/>
           </g>
        </g>
        
        <g class="tipTop" id='tip1_3'>

	       <g >
           <rect  class="st4" x="16.050000" y="40.250000" width="12.100000" height="12.100000" />
		  <ellipse class="st1"  cx="22.100000" cy="46.300000" rx="5.3" ry="5.3"/>
	       
	       <circle class="st2"  cx="22.100000" cy="46.300000"  r="4.1"/>
           </g>
        </g>
        
        <g class="tipTop" id='tip1_4'>

	       <g >
           <rect  class="st4" x="16.050000" y="52.350000" width="12.100000" height="12.100000" />
		  <ellipse class="st1"  cx="22.100000" cy="58.400000" rx="5.3" ry="5.3"/>
	       
	       <circle class="st2"  cx="22.100000" cy="58.400000"  r="4.1"/>
           </g>
        </g>
        
        <g class="tipTop" id='tip1_5'>

	       <g >
           <rect  class="st4" x="16.050000" y="64.450000" width="12.100000" height="12.100000" />
		  <ellipse class="st1"  cx="22.100000" cy="70.500000" rx="5.3" ry="5.3"/>
	       
	       <circle class="st2"  cx="22.100000" cy="70.500000"  r="4.1"/>
           </g>
        </g>
        
        <g class="tipTop" id='tip1_6'>

	       <g >
           <rect  class="st4" x="16.050000" y="76.550000" width="12.100000" height="12.100000" />
		  <ellipse class="st1"  cx="22.100000" cy="82.600000" rx="5.3" ry="5.3"/>
	       
	       <circle class="st2"  cx="22.100000" cy="82.600000"  r="4.1"/>
           </g>
        </g>
        
        <g class="tipTop" id='tip1_7'>

	       <g >
           <rect  class="st4" x="16.050000" y="88.650000" width="12.100000" height="12.100000" />
		  <ellipse class="st1"  cx="22.100000" cy="94.700000" rx="5.3" ry="5.3"/>
	       
	       <circle class="st2"  cx="22.100000" cy="94.700000"  r="4.1"/>
           </g>
        </g>
        
        <g class="tipTop" id='tip2_0'>

	       <g >
           <rect  class="st4" x="28.150000" y="3.950000" width="12.100000" height="12.100000" />
		  <ellipse class="st1"  cx="34.200000" cy="10.000000" rx="5.3" ry="5.3"/>
	       
	       <circle class="st2"  cx="34.200000" cy="10.000000"  r="4.1"/>
           </g>
        </g>
        
        <g class="tipTop" id='tip2_1'>

	       <g >
           <rect  class="st4" x="28.150000" y="16.050000" width="12.100000" height="12.100000" />
		  <ellipse class="st1"  cx="34.200000" cy="22.100000" rx="5.3" ry="5.3"/>
	       
	       <circle class="st2"  cx="34.200000" cy="22.100000"  r="4.1"/>
           </g>
        </g>
        
        <g class="tipTop" id='tip2_2'>

	       <g >
           <rect  class="st4" x="28.150000" y="28.150000" width="12.100000" height="12.100000" />
		  <ellipse class="st1"  cx="34.200000" cy="34.200000" rx="5.3" ry="5.3"/>
	       
	       <circle class="st2"  cx="34.200000" cy="34.200000"  r="4.1"/>
           </g>
        </g>
        
        <g class="tipTop" id='tip2_3'>

	       <g >
           <rect  class="st4" x="28.150000" y="40.250000" width="12.100000" height="12.100000" />
		  <ellipse class="st1"  cx="34.200000" cy="46.300000" rx="5.3" ry="5.3"/>
	       
	       <circle class="st2"  cx="34.200000" cy="46.300000"  r="4.1"/>
           </g>
        </g>
        
        <g class="tipTop" id='tip2_4'>

	       <g >
           <rect  class="st4" x="28.150000" y="52.350000" width="12.100000" height="12.100000" />
		  <ellipse class="st1"  cx="34.200000" cy="58.400000" rx="5.3" ry="5.3"/>
	       
	       <circle class="st2"  cx="34.200000" cy="58.400000"  r="4.1"/>
           </g>
        </g>
        
        <g class="tipTop" id='tip2_5'>

	       <g >
           <rect  class="st4" x="28.150000" y="64.450000" width="12.100000" height="12.100000" />
		  <ellipse class="st1"  cx="34.200000" cy="70.500000" rx="5.3" ry="5.3"/>
	       
	       <circle class="st2"  cx="34.200000" cy="70.500000"  r="4.1"/>
           </g>
        </g>
        
        <g class="tipTop" id='tip2_6'>

	       <g >
           <rect  class="st4" x="28.150000" y="76.550000" width="12.100000" height="12.100000" />
		  <ellipse class="st1"  cx="34.200000" cy="82.600000" rx="5.3" ry="5.3"/>
	       
	       <circle class="st2"  cx="34.200000" cy="82.600000"  r="4.1"/>
           </g>
        </g>
        
        <g class="tipTop" id='tip2_7'>

	       <g >
           <rect  class="st4" x="28.150000" y="88.650000" width="12.100000" height="12.100000" />
		  <ellipse class="st1"  cx="34.200000" cy="94.700000" rx="5.3" ry="5.3"/>
	       
	       <circle class="st2"  cx="34.200000" cy="94.700000"  r="4.1"/>
           </g>
        </g>
        
        <g class="tipTop" id='tip3_0'>

	       <g >
           <rect  class="st4" x="40.250000" y="3.950000" width="12.100000" height="12.100000" />
		  <ellipse class="st1"  cx="46.300000" cy="10.000000" rx="5.3" ry="5.3"/>
	       
	       <circle class="st2"  cx="46.300000" cy="10.000000"  r="4.1"/>
           </g>
        </g>
        
        <g class="tipTop" id='tip3_1'>

	       <g >
           <rect  class="st4" x="40.250000" y="16.050000" width="12.100000" height="12.100000" />
		  <ellipse class="st1"  cx="46.300000" cy="22.100000" rx="5.3" ry="5.3"/>
	       
	       <circle class="st2"  cx="46.300000" cy="22.100000"  r="4.1"/>
           </g>
        </g>
        
        <g class="tipTop" id='tip3_2'>

	       <g >
           <rect  class="st4" x="40.250000" y="28.150000" width="12.100000" height="12.100000" />
		  <ellipse class="st1"  cx="46.300000" cy="34.200000" rx="5.3" ry="5.3"/>
	       
	       <circle class="st2"  cx="46.300000" cy="34.200000"  r="4.1"/>
           </g>
        </g>
        
        <g class="tipTop" id='tip3_3'>

	       <g >
           <rect  class="st4" x="40.250000" y="40.250000" width="12.100000" height="12.100000" />
		  <ellipse class="st1"  cx="46.300000" cy="46.300000" rx="5.3" ry="5.3"/>
	       
	       <circle class="st2"  cx="46.300000" cy="46.300000"  r="4.1"/>
           </g>
        </g>
        
        <g class="tipTop" id='tip3_4'>

	       <g >
           <rect  class="st4" x="40.250000" y="52.350000" width="12.100000" height="12.100000" />
		  <ellipse class="st1"  cx="46.300000" cy="58.400000" rx="5.3" ry="5.3"/>
	       
	       <circle class="st2"  cx="46.300000" cy="58.400000"  r="4.1"/>
           </g>
        </g>
        
        <g class="tipTop" id='tip3_5'>

	       <g >
           <rect  class="st4" x="40.250000" y="64.450000" width="12.100000" height="12.100000" />
		  <ellipse class="st1"  cx="46.300000" cy="70.500000" rx="5.3" ry="5.3"/>
	       
	       <circle class="st2"  cx="46.300000" cy="70.500000"  r="4.1"/>
           </g>
        </g>
        
        <g class="tipTop" id='tip3_6'>

	       <g >
           <rect  class="st4" x="40.250000" y="76.550000" width="12.100000" height="12.100000" />
		  <ellipse class="st1"  cx="46.300000" cy="82.600000" rx="5.3" ry="5.3"/>
	       
	       <circle class="st2"  cx="46.300000" cy="82.600000"  r="4.1"/>
           </g>
        </g>
        
        <g class="tipTop" id='tip3_7'>

	       <g >
           <rect  class="st4" x="40.250000" y="88.650000" width="12.100000" height="12.100000" />
		  <ellipse class="st1"  cx="46.300000" cy="94.700000" rx="5.3" ry="5.3"/>
	       
	       <circle class="st2"  cx="46.300000" cy="94.700000"  r="4.1"/>
           </g>
        </g>
        
        <g class="tipTop" id='tip4_0'>

	       <g >
           <rect  class="st4" x="52.350000" y="3.950000" width="12.100000" height="12.100000" />
		  <ellipse class="st1"  cx="58.400000" cy="10.000000" rx="5.3" ry="5.3"/>
	       
	       <circle class="st2"  cx="58.400000" cy="10.000000"  r="4.1"/>
           </g>
        </g>
        
        <g class="tipTop" id='tip4_1'>

	       <g >
           <rect  class="st4" x="52.350000" y="16.050000" width="12.100000" height="12.100000" />
		  <ellipse class="st1"  cx="58.400000" cy="22.100000" rx="5.3" ry="5.3"/>
	       
	       <circle class="st2"  cx="58.400000" cy="22.100000"  r="4.1"/>
           </g>
        </g>
        
        <g class="tipTop" id='tip4_2'>

	       <g >
           <rect  class="st4" x="52.350000" y="28.150000" width="12.100000" height="12.100000" />
		  <ellipse class="st1"  cx="58.400000" cy="34.200000" rx="5.3" ry="5.3"/>
	       
	       <circle class="st2"  cx="58.400000" cy="34.200000"  r="4.1"/>
           </g>
        </g>
        
        <g class="tipTop" id='tip4_3'>

	       <g >
           <rect  class="st4" x="52.350000" y="40.250000" width="12.100000" height="12.100000" />
		  <ellipse class="st1"  cx="58.400000" cy="46.300000" rx="5.3" ry="5.3"/>
	       
	       <circle class="st2"  cx="58.400000" cy="46.300000"  r="4.1"/>
           </g>
        </g>
        
        <g class="tipTop" id='tip4_4'>

	       <g >
           <rect  class="st4" x="52.350000" y="52.350000" width="12.100000" height="12.100000" />
		  <ellipse class="st1"  cx="58.400000" cy="58.400000" rx="5.3" ry="5.3"/>
	       
	       <circle class="st2"  cx="58.400000" cy="58.400000"  r="4.1"/>
           </g>
        </g>
        
        <g class="tipTop" id='tip4_5'>

	       <g >
           <rect  class="st4" x="52.350000" y="64.450000" width="12.100000" height="12.100000" />
		  <ellipse class="st1"  cx="58.400000" cy="70.500000" rx="5.3" ry="5.3"/>
	       
	       <circle class="st2"  cx="58.400000" cy="70.500000"  r="4.1"/>
           </g>
        </g>
        
        <g class="tipTop" id='tip4_6'>

	       <g >
           <rect  class="st4" x="52.350000" y="76.550000" width="12.100000" height="12.100000" />
		  <ellipse class="st1"  cx="58.400000" cy="82.600000" rx="5.3" ry="5.3"/>
	       
	       <circle class="st2"  cx="58.400000" cy="82.600000"  r="4.1"/>
           </g>
        </g>
        
        <g class="tipTop" id='tip4_7'>

	       <g >
           <rect  class="st4" x="52.350000" y="88.650000" width="12.100000" height="12.100000" />
		  <ellipse class="st1"  cx="58.400000" cy="94.700000" rx="5.3" ry="5.3"/>
	       
	       <circle class="st2"  cx="58.400000" cy="94.700000"  r="4.1"/>
           </g>
        </g>
        
        <g class="tipTop" id='tip5_0'>

	       <g >
           <rect  class="st4" x="64.450000" y="3.950000" width="12.100000" height="12.100000" />
		  <ellipse class="st1"  cx="70.500000" cy="10.000000" rx="5.3" ry="5.3"/>
	       
	       <circle class="st2"  cx="70.500000" cy="10.000000"  r="4.1"/>
           </g>
        </g>
        
        <g class="tipTop" id='tip5_1'>

	       <g >
           <rect  class="st4" x="64.450000" y="16.050000" width="12.100000" height="12.100000" />
		  <ellipse class="st1"  cx="70.500000" cy="22.100000" rx="5.3" ry="5.3"/>
	       
	       <circle class="st2"  cx="70.500000" cy="22.100000"  r="4.1"/>
           </g>
        </g>
        
        <g class="tipTop" id='tip5_2'>

	       <g >
           <rect  class="st4" x="64.450000" y="28.150000" width="12.100000" height="12.100000" />
		  <ellipse class="st1"  cx="70.500000" cy="34.200000" rx="5.3" ry="5.3"/>
	       
	       <circle class="st2"  cx="70.500000" cy="34.200000"  r="4.1"/>
           </g>
        </g>
        
        <g class="tipTop" id='tip5_3'>

	       <g >
           <rect  class="st4" x="64.450000" y="40.250000" width="12.100000" height="12.100000" />
		  <ellipse class="st1"  cx="70.500000" cy="46.300000" rx="5.3" ry="5.3"/>
	       
	       <circle class="st2"  cx="70.500000" cy="46.300000"  r="4.1"/>
           </g>
        </g>
        
        <g class="tipTop" id='tip5_4'>

	       <g >
           <rect  class="st4" x="64.450000" y="52.350000" width="12.100000" height="12.100000" />
		  <ellipse class="st1"  cx="70.500000" cy="58.400000" rx="5.3" ry="5.3"/>
	       
	       <circle class="st2"  cx="70.500000" cy="58.400000"  r="4.1"/>
           </g>
        </g>
        
        <g class="tipTop" id='tip5_5'>

	       <g >
           <rect  class="st4" x="64.450000" y="64.450000" width="12.100000" height="12.100000" />
		  <ellipse class="st1"  cx="70.500000" cy="70.500000" rx="5.3" ry="5.3"/>
	       
	       <circle class="st2"  cx="70.500000" cy="70.500000"  r="4.1"/>
           </g>
        </g>
        
        <g class="tipTop" id='tip5_6'>

	       <g >
           <rect  class="st4" x="64.450000" y="76.550000" width="12.100000" height="12.100000" />
		  <ellipse class="st1"  cx="70.500000" cy="82.600000" rx="5.3" ry="5.3"/>
	       
	       <circle class="st2"  cx="70.500000" cy="82.600000"  r="4.1"/>
           </g>
        </g>
        
        <g class="tipTop" id='tip5_7'>

	       <g >
           <rect  class="st4" x="64.450000" y="88.650000" width="12.100000" height="12.100000" />
		  <ellipse class="st1"  cx="70.500000" cy="94.700000" rx="5.3" ry="5.3"/>
	       
	       <circle class="st2"  cx="70.500000" cy="94.700000"  r="4.1"/>
           </g>
        </g>
        
        <g class="tipTop" id='tip6_0'>

	       <g >
           <rect  class="st4" x="76.550000" y="3.950000" width="12.100000" height="12.100000" />
		  <ellipse class="st1"  cx="82.600000" cy="10.000000" rx="5.3" ry="5.3"/>
	       
	       <circle class="st2"  cx="82.600000" cy="10.000000"  r="4.1"/>
           </g>
        </g>
        
        <g class="tipTop" id='tip6_1'>

	       <g >
           <rect  class="st4" x="76.550000" y="16.050000" width="12.100000" height="12.100000" />
		  <ellipse class="st1"  cx="82.600000" cy="22.100000" rx="5.3" ry="5.3"/>
	       
	       <circle class="st2"  cx="82.600000" cy="22.100000"  r="4.1"/>
           </g>
        </g>
        
        <g class="tipTop" id='tip6_2'>

	       <g >
           <rect  class="st4" x="76.550000" y="28.150000" width="12.100000" height="12.100000" />
		  <ellipse class="st1"  cx="82.600000" cy="34.200000" rx="5.3" ry="5.3"/>
	       
	       <circle class="st2"  cx="82.600000" cy="34.200000"  r="4.1"/>
           </g>
        </g>
        
        <g class="tipTop" id='tip6_3'>

	       <g >
           <rect  class="st4" x="76.550000" y="40.250000" width="12.100000" height="12.100000" />
		  <ellipse class="st1"  cx="82.600000" cy="46.300000" rx="5.3" ry="5.3"/>
	       
	       <circle class="st2"  cx="82.600000" cy="46.300000"  r="4.1"/>
           </g>
        </g>
        
        <g class="tipTop" id='tip6_4'>

	       <g >
           <rect  class="st4" x="76.550000" y="52.350000" width="12.100000" height="12.100000" />
		  <ellipse class="st1"  cx="82.600000" cy="58.400000" rx="5.3" ry="5.3"/>
	       
	       <circle class="st2"  cx="82.600000" cy="58.400000"  r="4.1"/>
           </g>
        </g>
        
        <g class="tipTop" id='tip6_5'>

	       <g >
           <rect  class="st4" x="76.550000" y="64.450000" width="12.100000" height="12.100000" />
		  <ellipse class="st1"  cx="82.600000" cy="70.500000" rx="5.3" ry="5.3"/>
	       
	       <circle class="st2"  cx="82.600000" cy="70.500000"  r="4.1"/>
           </g>
        </g>
        
        <g class="tipTop" id='tip6_6'>

	       <g >
           <rect  class="st4" x="76.550000" y="76.550000" width="12.100000" height="12.100000" />
		  <ellipse class="st1"  cx="82.600000" cy="82.600000" rx="5.3" ry="5.3"/>
	       
	       <circle class="st2"  cx="82.600000" cy="82.600000"  r="4.1"/>
           </g>
        </g>
        
        <g class="tipTop" id='tip6_7'>

	       <g >
           <rect  class="st4" x="76.550000" y="88.650000" width="12.100000" height="12.100000" />
		  <ellipse class="st1"  cx="82.600000" cy="94.700000" rx="5.3" ry="5.3"/>
	       
	       <circle class="st2"  cx="82.600000" cy="94.700000"  r="4.1"/>
           </g>
        </g>
        
        <g class="tipTop" id='tip7_0'>

	       <g >
           <rect  class="st4" x="88.650000" y="3.950000" width="12.100000" height="12.100000" />
		  <ellipse class="st1"  cx="94.700000" cy="10.000000" rx="5.3" ry="5.3"/>
	       
	       <circle class="st2"  cx="94.700000" cy="10.000000"  r="4.1"/>
           </g>
        </g>
        
        <g class="tipTop" id='tip7_1'>

	       <g >
           <rect  class="st4" x="88.650000" y="16.050000" width="12.100000" height="12.100000" />
		  <ellipse class="st1"  cx="94.700000" cy="22.100000" rx="5.3" ry="5.3"/>
	       
	       <circle class="st2"  cx="94.700000" cy="22.100000"  r="4.1"/>
           </g>
        </g>
        
        <g class="tipTop" id='tip7_2'>

	       <g >
           <rect  class="st4" x="88.650000" y="28.150000" width="12.100000" height="12.100000" />
		  <ellipse class="st1"  cx="94.700000" cy="34.200000" rx="5.3" ry="5.3"/>
	       
	       <circle class="st2"  cx="94.700000" cy="34.200000"  r="4.1"/>
           </g>
        </g>
        
        <g class="tipTop" id='tip7_3'>

	       <g >
           <rect  class="st4" x="88.650000" y="40.250000" width="12.100000" height="12.100000" />
		  <ellipse class="st1"  cx="94.700000" cy="46.300000" rx="5.3" ry="5.3"/>
	       
	       <circle class="st2"  cx="94.700000" cy="46.300000"  r="4.1"/>
           </g>
        </g>
        
        <g class="tipTop" id='tip7_4'>

	       <g >
           <rect  class="st4" x="88.650000" y="52.350000" width="12.100000" height="12.100000" />
		  <ellipse class="st1"  cx="94.700000" cy="58.400000" rx="5.3" ry="5.3"/>
	       
	       <circle class="st2"  cx="94.700000" cy="58.400000"  r="4.1"/>
           </g>
        </g>
        
        <g class="tipTop" id='tip7_5'>

	       <g >
           <rect  class="st4" x="88.650000" y="64.450000" width="12.100000" height="12.100000" />
		  <ellipse class="st1"  cx="94.700000" cy="70.500000" rx="5.3" ry="5.3"/>
	       
	       <circle class="st2"  cx="94.700000" cy="70.500000"  r="4.1"/>
           </g>
        </g>
        
        <g class="tipTop" id='tip7_6'>

	       <g >
           <rect  class="st4" x="88.650000" y="76.550000" width="12.100000" height="12.100000" />
		  <ellipse class="st1"  cx="94.700000" cy="82.600000" rx="5.3" ry="5.3"/>
	       
	       <circle class="st2"  cx="94.700000" cy="82.600000"  r="4.1"/>
           </g>
        </g>
        
        <g class="tipTop" id='tip7_7'>

	       <g >
           <rect  class="st4" x="88.650000" y="88.650000" width="12.100000" height="12.100000" />
		  <ellipse class="st1"  cx="94.700000" cy="94.700000" rx="5.3" ry="5.3"/>
	       
	       <circle class="st2"  cx="94.700000" cy="94.700000"  r="4.1"/>
           </g>
        </g>
        
        <g class="tipTop" id='tip8_0'>

	       <g >
           <rect  class="st4" x="100.750000" y="3.950000" width="12.100000" height="12.100000" />
		  <ellipse class="st1"  cx="106.800000" cy="10.000000" rx="5.3" ry="5.3"/>
	       
	       <circle class="st2"  cx="106.800000" cy="10.000000"  r="4.1"/>
           </g>
        </g>
        
        <g class="tipTop" id='tip8_1'>

	       <g >
           <rect  class="st4" x="100.750000" y="16.050000" width="12.100000" height="12.100000" />
		  <ellipse class="st1"  cx="106.800000" cy="22.100000" rx="5.3" ry="5.3"/>
	       
	       <circle class="st2"  cx="106.800000" cy="22.100000"  r="4.1"/>
           </g>
        </g>
        
        <g class="tipTop" id='tip8_2'>

	       <g >
           <rect  class="st4" x="100.750000" y="28.150000" width="12.100000" height="12.100000" />
		  <ellipse class="st1"  cx="106.800000" cy="34.200000" rx="5.3" ry="5.3"/>
	       
	       <circle class="st2"  cx="106.800000" cy="34.200000"  r="4.1"/>
           </g>
        </g>
        
        <g class="tipTop" id='tip8_3'>

	       <g >
           <rect  class="st4" x="100.750000" y="40.250000" width="12.100000" height="12.100000" />
		  <ellipse class="st1"  cx="106.800000" cy="46.300000" rx="5.3" ry="5.3"/>
	       
	       <circle class="st2"  cx="106.800000" cy="46.300000"  r="4.1"/>
           </g>
        </g>
        
        <g class="tipTop" id='tip8_4'>

	       <g >
           <rect  class="st4" x="100.750000" y="52.350000" width="12.100000" height="12.100000" />
		  <ellipse class="st1"  cx="106.800000" cy="58.400000" rx="5.3" ry="5.3"/>
	       
	       <circle class="st2"  cx="106.800000" cy="58.400000"  r="4.1"/>
           </g>
        </g>
        
        <g class="tipTop" id='tip8_5'>

	       <g >
           <rect  class="st4" x="100.750000" y="64.450000" width="12.100000" height="12.100000" />
		  <ellipse class="st1"  cx="106.800000" cy="70.500000" rx="5.3" ry="5.3"/>
	       
	       <circle class="st2"  cx="106.800000" cy="70.500000"  r="4.1"/>
           </g>
        </g>
        
        <g class="tipTop" id='tip8_6'>

	       <g >
           <rect  class="st4" x="100.750000" y="76.550000" width="12.100000" height="12.100000" />
		  <ellipse class="st1"  cx="106.800000" cy="82.600000" rx="5.3" ry="5.3"/>
	       
	       <circle class="st2"  cx="106.800000" cy="82.600000"  r="4.1"/>
           </g>
        </g>
        
        <g class="tipTop" id='tip8_7'>

	       <g >
           <rect  class="st4" x="100.750000" y="88.650000" width="12.100000" height="12.100000" />
		  <ellipse class="st1"  cx="106.800000" cy="94.700000" rx="5.3" ry="5.3"/>
	       
	       <circle class="st2"  cx="106.800000" cy="94.700000"  r="4.1"/>
           </g>
        </g>
        
        <g class="tipTop" id='tip9_0'>

	       <g >
           <rect  class="st4" x="112.850000" y="3.950000" width="12.100000" height="12.100000" />
		  <ellipse class="st1"  cx="118.900000" cy="10.000000" rx="5.3" ry="5.3"/>
	       
	       <circle class="st2"  cx="118.900000" cy="10.000000"  r="4.1"/>
           </g>
        </g>
        
        <g class="tipTop" id='tip9_1'>

	       <g >
           <rect  class="st4" x="112.850000" y="16.050000" width="12.100000" height="12.100000" />
		  <ellipse class="st1"  cx="118.900000" cy="22.100000" rx="5.3" ry="5.3"/>
	       
	       <circle class="st2"  cx="118.900000" cy="22.100000"  r="4.1"/>
           </g>
        </g>
        
        <g class="tipTop" id='tip9_2'>

	       <g >
           <rect  class="st4" x="112.850000" y="28.150000" width="12.100000" height="12.100000" />
		  <ellipse class="st1"  cx="118.900000" cy="34.200000" rx="5.3" ry="5.3"/>
	       
	       <circle class="st2"  cx="118.900000" cy="34.200000"  r="4.1"/>
           </g>
        </g>
        
        <g class="tipTop" id='tip9_3'>

	       <g >
           <rect  class="st4" x="112.850000" y="40.250000" width="12.100000" height="12.100000" />
		  <ellipse class="st1"  cx="118.900000" cy="46.300000" rx="5.3" ry="5.3"/>
	       
	       <circle class="st2"  cx="118.900000" cy="46.300000"  r="4.1"/>
           </g>
        </g>
        
        <g class="tipTop" id='tip9_4'>

	       <g >
           <rect  class="st4" x="112.850000" y="52.350000" width="12.100000" height="12.100000" />
		  <ellipse class="st1"  cx="118.900000" cy="58.400000" rx="5.3" ry="5.3"/>
	       
	       <circle class="st2"  cx="118.900000" cy="58.400000"  r="4.1"/>
           </g>
        </g>
        
        <g class="tipTop" id='tip9_5'>

	       <g >
           <rect  class="st4" x="112.850000" y="64.450000" width="12.100000" height="12.100000" />
		  <ellipse class="st1"  cx="118.900000" cy="70.500000" rx="5.3" ry="5.3"/>
	       
	       <circle class="st2"  cx="118.900000" cy="70.500000"  r="4.1"/>
           </g>
        </g>
        
        <g class="tipTop" id='tip9_6'>

	       <g >
           <rect  class="st4" x="112.850000" y="76.550000" width="12.100000" height="12.100000" />
		  <ellipse class="st1"  cx="118.900000" cy="82.600000" rx="5.3" ry="5.3"/>
	       
	       <circle class="st2"  cx="118.900000" cy="82.600000"  r="4.1"/>
           </g>
        </g>
        
        <g class="tipTop" id='tip9_7'>

	       <g >
           <rect  class="st4" x="112.850000" y="88.650000" width="12.100000" height="12.100000" />
		  <ellipse class="st1"  cx="118.900000" cy="94.700000" rx="5.3" ry="5.3"/>
	       
	       <circle class="st2"  cx="118.900000" cy="94.700000"  r="4.1"/>
           </g>
        </g>
        
        <g class="tipTop" id='tip10_0'>

	       <g >
           <rect  class="st4" x="124.950000" y="3.950000" width="12.100000" height="12.100000" />
		  <ellipse class="st1"  cx="131.000000" cy="10.000000" rx="5.3" ry="5.3"/>
	       
	       <circle class="st2"  cx="131.000000" cy="10.000000"  r="4.1"/>
           </g>
        </g>
        
        <g class="tipTop" id='tip10_1'>

	       <g >
           <rect  class="st4" x="124.950000" y="16.050000" width="12.100000" height="12.100000" />
		  <ellipse class="st1"  cx="131.000000" cy="22.100000" rx="5.3" ry="5.3"/>
	       
	       <circle class="st2"  cx="131.000000" cy="22.100000"  r="4.1"/>
           </g>
        </g>
        
        <g class="tipTop" id='tip10_2'>

	       <g >
           <rect  class="st4" x="124.950000" y="28.150000" width="12.100000" height="12.100000" />
		  <ellipse class="st1"  cx="131.000000" cy="34.200000" rx="5.3" ry="5.3"/>
	       
	       <circle class="st2"  cx="131.000000" cy="34.200000"  r="4.1"/>
           </g>
        </g>
        
        <g class="tipTop" id='tip10_3'>

	       <g >
           <rect  class="st4" x="124.950000" y="40.250000" width="12.100000" height="12.100000" />
		  <ellipse class="st1"  cx="131.000000" cy="46.300000" rx="5.3" ry="5.3"/>
	       
	       <circle class="st2"  cx="131.000000" cy="46.300000"  r="4.1"/>
           </g>
        </g>
        
        <g class="tipTop" id='tip10_4'>

	       <g >
           <rect  class="st4" x="124.950000" y="52.350000" width="12.100000" height="12.100000" />
		  <ellipse class="st1"  cx="131.000000" cy="58.400000" rx="5.3" ry="5.3"/>
	       
	       <circle class="st2"  cx="131.000000" cy="58.400000"  r="4.1"/>
           </g>
        </g>
        
        <g class="tipTop" id='tip10_5'>

	       <g >
           <rect  class="st4" x="124.950000" y="64.450000" width="12.100000" height="12.100000" />
		  <ellipse class="st1"  cx="131.000000" cy="70.500000" rx="5.3" ry="5.3"/>
	       
	       <circle class="st2"  cx="131.000000" cy="70.500000"  r="4.1"/>
           </g>
        </g>
        
        <g class="tipTop" id='tip10_6'>

	       <g >
           <rect  class="st4" x="124.950000" y="76.550000" width="12.100000" height="12.100000" />
		  <ellipse class="st1"  cx="131.000000" cy="82.600000" rx="5.3" ry="5.3"/>
	       
	       <circle class="st2"  cx="131.000000" cy="82.600000"  r="4.1"/>
           </g>
        </g>
        
        <g class="tipTop" id='tip10_7'>

	       <g >
           <rect  class="st4" x="124.950000" y="88.650000" width="12.100000" height="12.100000" />
		  <ellipse class="st1"  cx="131.000000" cy="94.700000" rx="5.3" ry="5.3"/>
	       
	       <circle class="st2"  cx="131.000000" cy="94.700000"  r="4.1"/>
           </g>
        </g>
        
        <g class="tipTop" id='tip11_0'>

	       <g >
           <rect  class="st4" x="137.050000" y="3.950000" width="12.100000" height="12.100000" />
		  <ellipse class="st1"  cx="143.100000" cy="10.000000" rx="5.3" ry="5.3"/>
	       
	       <circle class="st2"  cx="143.100000" cy="10.000000"  r="4.1"/>
           </g>
        </g>
        
        <g class="tipTop" id='tip11_1'>

	       <g >
           <rect  class="st4" x="137.050000" y="16.050000" width="12.100000" height="12.100000" />
		  <ellipse class="st1"  cx="143.100000" cy="22.100000" rx="5.3" ry="5.3"/>
	       
	       <circle class="st2"  cx="143.100000" cy="22.100000"  r="4.1"/>
           </g>
        </g>
        
        <g class="tipTop" id='tip11_2'>

	       <g >
           <rect  class="st4" x="137.050000" y="28.150000" width="12.100000" height="12.100000" />
		  <ellipse class="st1"  cx="143.100000" cy="34.200000" rx="5.3" ry="5.3"/>
	       
	       <circle class="st2"  cx="143.100000" cy="34.200000"  r="4.1"/>
           </g>
        </g>
        
        <g class="tipTop" id='tip11_3'>

	       <g >
           <rect  class="st4" x="137.050000" y="40.250000" width="12.100000" height="12.100000" />
		  <ellipse class="st1"  cx="143.100000" cy="46.300000" rx="5.3" ry="5.3"/>
	       
	       <circle class="st2"  cx="143.100000" cy="46.300000"  r="4.1"/>
           </g>
        </g>
        
        <g class="tipTop" id='tip11_4'>

	       <g >
           <rect  class="st4" x="137.050000" y="52.350000" width="12.100000" height="12.100000" />
		  <ellipse class="st1"  cx="143.100000" cy="58.400000" rx="5.3" ry="5.3"/>
	       
	       <circle class="st2"  cx="143.100000" cy="58.400000"  r="4.1"/>
           </g>
        </g>
        
        <g class="tipTop" id='tip11_5'>

	       <g >
           <rect  class="st4" x="137.050000" y="64.450000" width="12.100000" height="12.100000" />
		  <ellipse class="st1"  cx="143.100000" cy="70.500000" rx="5.3" ry="5.3"/>
	       
	       <circle class="st2"  cx="143.100000" cy="70.500000"  r="4.1"/>
           </g>
        </g>
        
        <g class="tipTop" id='tip11_6'>

	       <g >
           <rect  class="st4" x="137.050000" y="76.550000" width="12.100000" height="12.100000" />
		  <ellipse class="st1"  cx="143.100000" cy="82.600000" rx="5.3" ry="5.3"/>
	       
	       <circle class="st2"  cx="143.100000" cy="82.600000"  r="4.1"/>
           </g>
        </g>
        
        <g class="tipTop" id='tip11_7'>

	       <g >
           <rect  class="st4" x="137.050000" y="88.650000" width="12.100000" height="12.100000" />
		  <ellipse class="st1"  cx="143.100000" cy="94.700000" rx="5.3" ry="5.3"/>
	       
	       <circle class="st2"  cx="143.100000" cy="94.700000"  r="4.1"/>
           </g>
        </g>
    </g>    
</svg>
