<?xml version="1.0" encoding="utf-8"?>
<!-- Generator: Adobe Illustrator 19.2.1, SVG Export Plug-In . SVG Version: 6.00 Build 0)  -->
<svg version="1.1" id="Layer_1" xmlns="http://www.w3.org/2000/svg" xmlns:xlink="http://www.w3.org/1999/xlink" x="0px" y="0px"
	 viewBox="0 0 154.4 106.3" style="enable-background:new 0 0 154.4 106.3;" xml:space="preserve">
<style type="text/css">
	.tipBoxTop_0{fill:#4265B0;stroke:#000000;stroke-miterlimit:10;}
	.tipBoxTop_1{fill:#B3B1A2;}
	.tipBoxTop_2{fill:#D4D3CA;fill-opacity:0.8;enable-background:new    ;}
</style>
<path class="tipBoxTop_0" d="M142.4,105.1H12c-6.6,0-12-5.4-12-12V12C0,5.4,5.4,0,12,0h130.4c6.6,0,12,5.4,12,12v81.1
	C154.4,99.7,149,105.1,142.4,105.1z"/>
<title>Layer 1</title>
<g>
	<g>
		<ellipse transform="matrix(0.7863 -0.6178 0.6178 0.7863 -55.7941 27.06)" class="tipBoxTop_1" cx="11.2" cy="94.2" rx="5.3" ry="5.3"/>
	</g>
	<circle class="tipBoxTop_2" cx="11.2" cy="94.2" r="4.1"/>
</g>
<g>
	<g>
		<ellipse transform="matrix(0.7863 -0.6178 0.6178 0.7863 -40.3085 71.8337)" class="tipBoxTop_1" cx="83.7" cy="94.2" rx="5.3" ry="5.3"/>
	</g>
	<circle class="tipBoxTop_2" cx="83.7" cy="94.2" r="4.1"/>
</g>
<g>
	<g>
		<ellipse transform="matrix(0.7863 -0.6178 0.6178 0.7863 -42.8895 64.3714)" class="tipBoxTop_1" cx="71.6" cy="94.2" rx="5.3" ry="5.3"/>
	</g>
	<circle class="tipBoxTop_2" cx="71.6" cy="94.2" r="4.1"/>
</g>
<g>
	<g>
		<ellipse transform="matrix(0.7863 -0.6178 0.6178 0.7863 -45.4704 56.9091)" class="tipBoxTop_1" cx="59.5" cy="94.2" rx="5.3" ry="5.3"/>
	</g>
	<circle class="tipBoxTop_2" cx="59.5" cy="94.2" r="4.1"/>
</g>
<g>
	<g>
		<ellipse transform="matrix(0.7863 -0.6178 0.6178 0.7863 -48.0513 49.4468)" class="tipBoxTop_1" cx="47.5" cy="94.2" rx="5.3" ry="5.3"/>
	</g>
	<circle class="tipBoxTop_2" cx="47.5" cy="94.2" r="4.1"/>
</g>
<g>
	<g>
		<ellipse transform="matrix(0.7863 -0.6178 0.6178 0.7863 -50.6322 41.9846)" class="tipBoxTop_1" cx="35.4" cy="94.2" rx="5.3" ry="5.3"/>
	</g>
	<circle class="tipBoxTop_2" cx="35.4" cy="94.2" r="4.1"/>
</g>
<g>
	<g>
		<ellipse transform="matrix(0.7863 -0.6178 0.6178 0.7863 -53.2132 34.5223)" class="tipBoxTop_1" cx="23.3" cy="94.2" rx="5.3" ry="5.3"/>
	</g>
	<circle class="tipBoxTop_2" cx="23.3" cy="94.2" r="4.1"/>
</g>
<g>
	<g>
		
			<ellipse transform="matrix(0.7863 -0.6178 0.6178 0.7863 -27.4039 109.145)" class="tipBoxTop_1" cx="144.1" cy="94.2" rx="5.3" ry="5.3"/>
	</g>
	<circle class="tipBoxTop_2" cx="144.1" cy="94.2" r="4.1"/>
</g>
<g>
	<g>
		<ellipse transform="matrix(0.7863 -0.6178 0.6178 0.7863 -29.9848 101.6827)" class="tipBoxTop_1" cx="132" cy="94.2" rx="5.3" ry="5.3"/>
	</g>
	<circle class="tipBoxTop_2" cx="132" cy="94.2" r="4.1"/>
</g>
<g>
	<g>
		
			<ellipse transform="matrix(0.7863 -0.6178 0.6178 0.7863 -32.5658 94.2205)" class="tipBoxTop_1" cx="119.9" cy="94.2" rx="5.3" ry="5.3"/>
	</g>
	<circle class="tipBoxTop_2" cx="119.9" cy="94.2" r="4.1"/>
</g>
<g>
	<g>
		
			<ellipse transform="matrix(0.7863 -0.6178 0.6178 0.7863 -35.1467 86.7582)" class="tipBoxTop_1" cx="107.8" cy="94.2" rx="5.3" ry="5.3"/>
	</g>
	<circle class="tipBoxTop_2" cx="107.8" cy="94.2" r="4.1"/>
</g>
<g>
	<g>
		<ellipse transform="matrix(0.7863 -0.6178 0.6178 0.7863 -37.7276 79.2959)" class="tipBoxTop_1" cx="95.8" cy="94.2" rx="5.3" ry="5.3"/>
	</g>
	<circle class="tipBoxTop_2" cx="95.8" cy="94.2" r="4.1"/>
</g>
<g>
	<g>
		<ellipse transform="matrix(0.7863 -0.6178 0.6178 0.7863 -48.3586 24.4884)" class="tipBoxTop_1" cx="11.2" cy="82.2" rx="5.3" ry="5.3"/>
	</g>
	<circle class="tipBoxTop_2" cx="11.2" cy="82.2" r="4.1"/>
</g>
<g>
	<g>
		<ellipse transform="matrix(0.7863 -0.6178 0.6178 0.7863 -32.873 69.262)" class="tipBoxTop_1" cx="83.7" cy="82.2" rx="5.3" ry="5.3"/>
	</g>
	<circle class="tipBoxTop_2" cx="83.7" cy="82.2" r="4.1"/>
</g>
<g>
	<g>
		<ellipse transform="matrix(0.7863 -0.6178 0.6178 0.7863 -35.4539 61.7997)" class="tipBoxTop_1" cx="71.6" cy="82.2" rx="5.3" ry="5.3"/>
	</g>
	<circle class="tipBoxTop_2" cx="71.6" cy="82.2" r="4.1"/>
</g>
<g>
	<g>
		<ellipse transform="matrix(0.7863 -0.6178 0.6178 0.7863 -38.0349 54.3374)" class="tipBoxTop_1" cx="59.5" cy="82.2" rx="5.3" ry="5.3"/>
	</g>
	<circle class="tipBoxTop_2" cx="59.5" cy="82.2" r="4.1"/>
</g>
<g>
	<g>
		<ellipse transform="matrix(0.7863 -0.6178 0.6178 0.7863 -40.6158 46.8752)" class="tipBoxTop_1" cx="47.5" cy="82.2" rx="5.3" ry="5.3"/>
	</g>
	<circle class="tipBoxTop_2" cx="47.5" cy="82.2" r="4.1"/>
</g>
<g>
	<g>
		<ellipse transform="matrix(0.7863 -0.6178 0.6178 0.7863 -43.1967 39.4129)" class="tipBoxTop_1" cx="35.4" cy="82.2" rx="5.3" ry="5.3"/>
	</g>
	<circle class="tipBoxTop_2" cx="35.4" cy="82.2" r="4.1"/>
</g>
<g>
	<g>
		<ellipse transform="matrix(0.7863 -0.6178 0.6178 0.7863 -45.7776 31.9506)" class="tipBoxTop_1" cx="23.3" cy="82.2" rx="5.3" ry="5.3"/>
	</g>
	<circle class="tipBoxTop_2" cx="23.3" cy="82.2" r="4.1"/>
</g>
<g>
	<g>
		
			<ellipse transform="matrix(0.7863 -0.6178 0.6178 0.7863 -19.9684 106.5733)" class="tipBoxTop_1" cx="144.1" cy="82.2" rx="5.3" ry="5.3"/>
	</g>
	<circle class="tipBoxTop_2" cx="144.1" cy="82.2" r="4.1"/>
</g>
<g>
	<g>
		<ellipse transform="matrix(0.7863 -0.6178 0.6178 0.7863 -22.5493 99.1111)" class="tipBoxTop_1" cx="132" cy="82.2" rx="5.3" ry="5.3"/>
	</g>
	<circle class="tipBoxTop_2" cx="132" cy="82.2" r="4.1"/>
</g>
<g>
	<g>
		
			<ellipse transform="matrix(0.7863 -0.6178 0.6178 0.7863 -25.1303 91.6488)" class="tipBoxTop_1" cx="119.9" cy="82.2" rx="5.3" ry="5.3"/>
	</g>
	<circle class="tipBoxTop_2" cx="119.9" cy="82.2" r="4.1"/>
</g>
<g>
	<g>
		
			<ellipse transform="matrix(0.7863 -0.6178 0.6178 0.7863 -27.7112 84.1865)" class="tipBoxTop_1" cx="107.8" cy="82.2" rx="5.3" ry="5.3"/>
	</g>
	<circle class="tipBoxTop_2" cx="107.8" cy="82.2" r="4.1"/>
</g>
<g>
	<g>
		<ellipse transform="matrix(0.7863 -0.6178 0.6178 0.7863 -30.2921 76.7243)" class="tipBoxTop_1" cx="95.8" cy="82.2" rx="5.3" ry="5.3"/>
	</g>
	<circle class="tipBoxTop_2" cx="95.8" cy="82.2" r="4.1"/>
</g>
<g>
	<g>
		<ellipse transform="matrix(0.7863 -0.6178 0.6178 0.7863 -40.9784 21.7566)" class="tipBoxTop_1" cx="11" cy="70.1" rx="5.3" ry="5.3"/>
	</g>
	<circle class="tipBoxTop_2" cx="11" cy="70.1" r="4.1"/>
</g>
<g>
	<g>
		<ellipse transform="matrix(0.7863 -0.6178 0.6178 0.7863 -25.4929 66.5302)" class="tipBoxTop_1" cx="83.4" cy="70.1" rx="5.3" ry="5.3"/>
	</g>
	<circle class="tipBoxTop_2" cx="83.4" cy="70.1" r="4.1"/>
</g>
<g>
	<g>
		<ellipse transform="matrix(0.7863 -0.6178 0.6178 0.7863 -28.0738 59.0679)" class="tipBoxTop_1" cx="71.4" cy="70.1" rx="5.3" ry="5.3"/>
	</g>
	<circle class="tipBoxTop_2" cx="71.4" cy="70.1" r="4.1"/>
</g>
<g>
	<g>
		<ellipse transform="matrix(0.7863 -0.6178 0.6178 0.7863 -30.6547 51.6056)" class="tipBoxTop_1" cx="59.3" cy="70.1" rx="5.3" ry="5.3"/>
	</g>
	<circle class="tipBoxTop_2" cx="59.3" cy="70.1" r="4.1"/>
</g>
<g>
	<g>
		<ellipse transform="matrix(0.7863 -0.6178 0.6178 0.7863 -33.2357 44.1434)" class="tipBoxTop_1" cx="47.2" cy="70.1" rx="5.3" ry="5.3"/>
	</g>
	<circle class="tipBoxTop_2" cx="47.2" cy="70.1" r="4.1"/>
</g>
<g>
	<g>
		<ellipse transform="matrix(0.7863 -0.6178 0.6178 0.7863 -35.8166 36.6811)" class="tipBoxTop_1" cx="35.1" cy="70.1" rx="5.3" ry="5.3"/>
	</g>
	<circle class="tipBoxTop_2" cx="35.1" cy="70.1" r="4.1"/>
</g>
<g>
	<g>
		<ellipse transform="matrix(0.7863 -0.6178 0.6178 0.7863 -38.3975 29.2188)" class="tipBoxTop_1" cx="23" cy="70.1" rx="5.3" ry="5.3"/>
	</g>
	<circle class="tipBoxTop_2" cx="23" cy="70.1" r="4.1"/>
</g>
<g>
	<g>
		
			<ellipse transform="matrix(0.7863 -0.6178 0.6178 0.7863 -12.5883 103.8415)" class="tipBoxTop_1" cx="143.8" cy="70.1" rx="5.3" ry="5.3"/>
	</g>
	<circle class="tipBoxTop_2" cx="143.8" cy="70.1" r="4.1"/>
</g>
<g>
	<g>
		
			<ellipse transform="matrix(0.7863 -0.6178 0.6178 0.7863 -15.1692 96.3792)" class="tipBoxTop_1" cx="131.7" cy="70.1" rx="5.3" ry="5.3"/>
	</g>
	<circle class="tipBoxTop_2" cx="131.7" cy="70.1" r="4.1"/>
</g>
<g>
	<g>
		<ellipse transform="matrix(0.7863 -0.6178 0.6178 0.7863 -17.7501 88.917)" class="tipBoxTop_1" cx="119.7" cy="70.1" rx="5.3" ry="5.3"/>
	</g>
	<circle class="tipBoxTop_2" cx="119.7" cy="70.1" r="4.1"/>
</g>
<g>
	<g>
		
			<ellipse transform="matrix(0.7863 -0.6178 0.6178 0.7863 -20.3311 81.4547)" class="tipBoxTop_1" cx="107.6" cy="70.1" rx="5.3" ry="5.3"/>
	</g>
	<circle class="tipBoxTop_2" cx="107.6" cy="70.1" r="4.1"/>
</g>
<g>
	<g>
		<ellipse transform="matrix(0.7863 -0.6178 0.6178 0.7863 -22.912 73.9924)" class="tipBoxTop_1" cx="95.5" cy="70.1" rx="5.3" ry="5.3"/>
	</g>
	<circle class="tipBoxTop_2" cx="95.5" cy="70.1" r="4.1"/>
</g>
<g>
	<g>
		<ellipse transform="matrix(0.7863 -0.6178 0.6178 0.7863 -33.5429 19.1849)" class="tipBoxTop_1" cx="11" cy="58.1" rx="5.3" ry="5.3"/>
	</g>
	<circle class="tipBoxTop_2" cx="11" cy="58.1" r="4.1"/>
</g>
<g>
	<g>
		<ellipse transform="matrix(0.7863 -0.6178 0.6178 0.7863 -18.0574 63.9585)" class="tipBoxTop_1" cx="83.4" cy="58.1" rx="5.3" ry="5.3"/>
	</g>
	<circle class="tipBoxTop_2" cx="83.4" cy="58.1" r="4.1"/>
</g>
<g>
	<g>
		<ellipse transform="matrix(0.7863 -0.6178 0.6178 0.7863 -20.6383 56.4962)" class="tipBoxTop_1" cx="71.4" cy="58.1" rx="5.3" ry="5.3"/>
	</g>
	<circle class="tipBoxTop_2" cx="71.4" cy="58.1" r="4.1"/>
</g>
<g>
	<g>
		<ellipse transform="matrix(0.7863 -0.6178 0.6178 0.7863 -23.2192 49.034)" class="tipBoxTop_1" cx="59.3" cy="58.1" rx="5.3" ry="5.3"/>
	</g>
	<circle class="tipBoxTop_2" cx="59.3" cy="58.1" r="4.1"/>
</g>
<g>
	<g>
		<ellipse transform="matrix(0.7863 -0.6178 0.6178 0.7863 -25.8002 41.5717)" class="tipBoxTop_1" cx="47.2" cy="58.1" rx="5.3" ry="5.3"/>
	</g>
	<circle class="tipBoxTop_2" cx="47.2" cy="58.1" r="4.1"/>
</g>
<g>
	<g>
		<ellipse transform="matrix(0.7863 -0.6178 0.6178 0.7863 -28.3811 34.1094)" class="tipBoxTop_1" cx="35.1" cy="58.1" rx="5.3" ry="5.3"/>
	</g>
	<circle class="tipBoxTop_2" cx="35.1" cy="58.1" r="4.1"/>
</g>
<g>
	<g>
		<ellipse transform="matrix(0.7863 -0.6178 0.6178 0.7863 -30.962 26.6472)" class="tipBoxTop_1" cx="23" cy="58.1" rx="5.3" ry="5.3"/>
	</g>
	<circle class="tipBoxTop_2" cx="23" cy="58.1" r="4.1"/>
</g>
<g>
	<g>
		
			<ellipse transform="matrix(0.7863 -0.6178 0.6178 0.7863 -5.1528 101.2698)" class="tipBoxTop_1" cx="143.8" cy="58.1" rx="5.3" ry="5.3"/>
	</g>
	<circle class="tipBoxTop_2" cx="143.8" cy="58.1" r="4.1"/>
</g>
<g>
	<g>
		<ellipse transform="matrix(0.7863 -0.6178 0.6178 0.7863 -7.7337 93.8076)" class="tipBoxTop_1" cx="131.7" cy="58.1" rx="5.3" ry="5.3"/>
	</g>
	<circle class="tipBoxTop_2" cx="131.7" cy="58.1" r="4.1"/>
</g>
<g>
	<g>
		
			<ellipse transform="matrix(0.7863 -0.6178 0.6178 0.7863 -10.3146 86.3453)" class="tipBoxTop_1" cx="119.7" cy="58.1" rx="5.3" ry="5.3"/>
	</g>
	<circle class="tipBoxTop_2" cx="119.7" cy="58.1" r="4.1"/>
</g>
<g>
	<g>
		<ellipse transform="matrix(0.7863 -0.6178 0.6178 0.7863 -12.8955 78.883)" class="tipBoxTop_1" cx="107.6" cy="58.1" rx="5.3" ry="5.3"/>
	</g>
	<circle class="tipBoxTop_2" cx="107.6" cy="58.1" r="4.1"/>
</g>
<g>
	<g>
		<ellipse transform="matrix(0.7863 -0.6178 0.6178 0.7863 -15.4765 71.4208)" class="tipBoxTop_1" cx="95.5" cy="58.1" rx="5.3" ry="5.3"/>
	</g>
	<circle class="tipBoxTop_2" cx="95.5" cy="58.1" r="4.1"/>
</g>
<g>
	<g>
		<ellipse transform="matrix(0.7863 -0.6178 0.6178 0.7863 -26.0006 16.9221)" class="tipBoxTop_1" cx="11.5" cy="46" rx="5.3" ry="5.3"/>
	</g>
	<circle class="tipBoxTop_2" cx="11.5" cy="46" r="4.1"/>
</g>
<g>
	<g>
		<ellipse transform="matrix(0.7863 -0.6178 0.6178 0.7863 -10.5151 61.6957)" class="tipBoxTop_1" cx="83.9" cy="46" rx="5.3" ry="5.3"/>
	</g>
	<circle class="tipBoxTop_2" cx="83.9" cy="46" r="4.1"/>
</g>
<g>
	<g>
		<ellipse transform="matrix(0.7863 -0.6178 0.6178 0.7863 -13.096 54.2334)" class="tipBoxTop_1" cx="71.9" cy="46" rx="5.3" ry="5.3"/>
	</g>
	<circle class="tipBoxTop_2" cx="71.9" cy="46" r="4.1"/>
</g>
<g>
	<g>
		<ellipse transform="matrix(0.7863 -0.6178 0.6178 0.7863 -15.6769 46.7711)" class="tipBoxTop_1" cx="59.8" cy="46" rx="5.3" ry="5.3"/>
	</g>
	<circle class="tipBoxTop_2" cx="59.8" cy="46" r="4.1"/>
</g>
<g>
	<g>
		<ellipse transform="matrix(0.7863 -0.6178 0.6178 0.7863 -18.2578 39.3089)" class="tipBoxTop_1" cx="47.7" cy="46" rx="5.3" ry="5.3"/>
	</g>
	<circle class="tipBoxTop_2" cx="47.7" cy="46" r="4.1"/>
</g>
<g>
	<g>
		<ellipse transform="matrix(0.7863 -0.6178 0.6178 0.7863 -20.8388 31.8466)" class="tipBoxTop_1" cx="35.6" cy="46" rx="5.3" ry="5.3"/>
	</g>
	<circle class="tipBoxTop_2" cx="35.6" cy="46" r="4.1"/>
</g>
<g>
	<g>
		<ellipse transform="matrix(0.7863 -0.6178 0.6178 0.7863 -23.4197 24.3843)" class="tipBoxTop_1" cx="23.5" cy="46" rx="5.3" ry="5.3"/>
	</g>
	<circle class="tipBoxTop_2" cx="23.5" cy="46" r="4.1"/>
</g>
<g>
	<g>
		<ellipse transform="matrix(0.7863 -0.6178 0.6178 0.7863 2.3896 99.007)" class="tipBoxTop_1" cx="144.3" cy="46" rx="5.3" ry="5.3"/>
	</g>
	<circle class="tipBoxTop_2" cx="144.3" cy="46" r="4.1"/>
</g>
<g>
	<g>
		<ellipse transform="matrix(0.7863 -0.6178 0.6178 0.7863 -0.1914 91.5447)" class="tipBoxTop_1" cx="132.2" cy="46" rx="5.3" ry="5.3"/>
	</g>
	<circle class="tipBoxTop_2" cx="132.2" cy="46" r="4.1"/>
</g>
<g>
	<g>
		<ellipse transform="matrix(0.7863 -0.6178 0.6178 0.7863 -2.7723 84.0825)" class="tipBoxTop_1" cx="120.2" cy="46" rx="5.3" ry="5.3"/>
	</g>
	<circle class="tipBoxTop_2" cx="120.2" cy="46" r="4.1"/>
</g>
<g>
	<g>
		<ellipse transform="matrix(0.7863 -0.6178 0.6178 0.7863 -5.3532 76.6202)" class="tipBoxTop_1" cx="108.1" cy="46" rx="5.3" ry="5.3"/>
	</g>
	<circle class="tipBoxTop_2" cx="108.1" cy="46" r="4.1"/>
</g>
<g>
	<g>
		<ellipse transform="matrix(0.7863 -0.6178 0.6178 0.7863 -7.9341 69.1579)" class="tipBoxTop_1" cx="96" cy="46" rx="5.3" ry="5.3"/>
	</g>
	<circle class="tipBoxTop_2" cx="96" cy="46" r="4.1"/>
</g>
<g>
	<g>
		<ellipse transform="matrix(0.7863 -0.6178 0.6178 0.7863 -18.5651 14.3504)" class="tipBoxTop_1" cx="11.5" cy="34" rx="5.3" ry="5.3"/>
	</g>
	<circle class="tipBoxTop_2" cx="11.5" cy="34" r="4.1"/>
</g>
<g>
	<g>
		<ellipse transform="matrix(0.7863 -0.6178 0.6178 0.7863 -3.0795 59.124)" class="tipBoxTop_1" cx="83.9" cy="34" rx="5.3" ry="5.3"/>
	</g>
	<circle class="tipBoxTop_2" cx="83.9" cy="34" r="4.1"/>
</g>
<g>
	<g>
		<ellipse transform="matrix(0.7863 -0.6178 0.6178 0.7863 -5.6605 51.6617)" class="tipBoxTop_1" cx="71.9" cy="34" rx="5.3" ry="5.3"/>
	</g>
	<circle class="tipBoxTop_2" cx="71.9" cy="34" r="4.1"/>
</g>
<g>
	<g>
		<ellipse transform="matrix(0.7863 -0.6178 0.6178 0.7863 -8.2414 44.1995)" class="tipBoxTop_1" cx="59.8" cy="34" rx="5.3" ry="5.3"/>
	</g>
	<circle class="tipBoxTop_2" cx="59.8" cy="34" r="4.1"/>
</g>
<g>
	<g>
		<ellipse transform="matrix(0.7863 -0.6178 0.6178 0.7863 -10.8223 36.7372)" class="tipBoxTop_1" cx="47.7" cy="34" rx="5.3" ry="5.3"/>
	</g>
	<circle class="tipBoxTop_2" cx="47.7" cy="34" r="4.1"/>
</g>
<g>
	<g>
		<ellipse transform="matrix(0.7863 -0.6178 0.6178 0.7863 -13.4032 29.2749)" class="tipBoxTop_1" cx="35.6" cy="34" rx="5.3" ry="5.3"/>
	</g>
	<circle class="tipBoxTop_2" cx="35.6" cy="34" r="4.1"/>
</g>
<g>
	<g>
		<ellipse transform="matrix(0.7863 -0.6178 0.6178 0.7863 -15.9842 21.8127)" class="tipBoxTop_1" cx="23.5" cy="34" rx="5.3" ry="5.3"/>
	</g>
	<circle class="tipBoxTop_2" cx="23.5" cy="34" r="4.1"/>
</g>
<g>
	<g>
		<ellipse transform="matrix(0.7863 -0.6178 0.6178 0.7863 9.8251 96.4353)" class="tipBoxTop_1" cx="144.3" cy="34" rx="5.3" ry="5.3"/>
	</g>
	<circle class="tipBoxTop_2" cx="144.3" cy="34" r="4.1"/>
</g>
<g>
	<g>
		<ellipse transform="matrix(0.7863 -0.6178 0.6178 0.7863 7.2441 88.9731)" class="tipBoxTop_1" cx="132.2" cy="34" rx="5.3" ry="5.3"/>
	</g>
	<circle class="tipBoxTop_2" cx="132.2" cy="34" r="4.1"/>
</g>
<g>
	<g>
		<ellipse transform="matrix(0.7863 -0.6178 0.6178 0.7863 4.6632 81.5108)" class="tipBoxTop_1" cx="120.2" cy="34" rx="5.3" ry="5.3"/>
	</g>
	<circle class="tipBoxTop_2" cx="120.2" cy="34" r="4.1"/>
</g>
<g>
	<g>
		<ellipse transform="matrix(0.7863 -0.6178 0.6178 0.7863 2.0823 74.0485)" class="tipBoxTop_1" cx="108.1" cy="34" rx="5.3" ry="5.3"/>
	</g>
	<circle class="tipBoxTop_2" cx="108.1" cy="34" r="4.1"/>
</g>
<g>
	<g>
		<ellipse transform="matrix(0.7863 -0.6178 0.6178 0.7863 -0.4986 66.5863)" class="tipBoxTop_1" cx="96" cy="34" rx="5.3" ry="5.3"/>
	</g>
	<circle class="tipBoxTop_2" cx="96" cy="34" r="4.1"/>
</g>
<g>
	<g>
		<ellipse transform="matrix(0.7863 -0.6178 0.6178 0.7863 -11.185 11.6186)" class="tipBoxTop_1" cx="11.2" cy="22" rx="5.3" ry="5.3"/>
	</g>
	<circle class="tipBoxTop_2" cx="11.2" cy="22" r="4.1"/>
</g>
<g>
	<g>
		<ellipse transform="matrix(0.7863 -0.6178 0.6178 0.7863 4.3006 56.3922)" class="tipBoxTop_1" cx="83.7" cy="22" rx="5.3" ry="5.3"/>
	</g>
	<circle class="tipBoxTop_2" cx="83.7" cy="22" r="4.1"/>
</g>
<g>
	<g>
		<ellipse transform="matrix(0.7863 -0.6178 0.6178 0.7863 1.7197 48.9299)" class="tipBoxTop_1" cx="71.6" cy="22" rx="5.3" ry="5.3"/>
	</g>
	<circle class="tipBoxTop_2" cx="71.6" cy="22" r="4.1"/>
</g>
<g>
	<g>
		<ellipse transform="matrix(0.7863 -0.6178 0.6178 0.7863 -0.8613 41.4677)" class="tipBoxTop_1" cx="59.5" cy="22" rx="5.3" ry="5.3"/>
	</g>
	<circle class="tipBoxTop_2" cx="59.5" cy="22" r="4.1"/>
</g>
<g>
	<g>
		<ellipse transform="matrix(0.7863 -0.6178 0.6178 0.7863 -3.4422 34.0054)" class="tipBoxTop_1" cx="47.4" cy="22" rx="5.3" ry="5.3"/>
	</g>
	<circle class="tipBoxTop_2" cx="47.4" cy="22" r="4.1"/>
</g>
<g>
	<g>
		<ellipse transform="matrix(0.7863 -0.6178 0.6178 0.7863 -6.0231 26.5431)" class="tipBoxTop_1" cx="35.4" cy="22" rx="5.3" ry="5.3"/>
	</g>
	<circle class="tipBoxTop_2" cx="35.4" cy="22" r="4.1"/>
</g>
<g>
	<g>
		<ellipse transform="matrix(0.7863 -0.6178 0.6178 0.7863 -8.604 19.0809)" class="tipBoxTop_1" cx="23.3" cy="22" rx="5.3" ry="5.3"/>
	</g>
	<circle class="tipBoxTop_2" cx="23.3" cy="22" r="4.1"/>
</g>
<g>
	<g>
		<ellipse transform="matrix(0.7863 -0.6178 0.6178 0.7863 17.2052 93.7035)" class="tipBoxTop_1" cx="144.1" cy="22" rx="5.3" ry="5.3"/>
	</g>
	<circle class="tipBoxTop_2" cx="144.1" cy="22" r="4.1"/>
</g>
<g>
	<g>
		<ellipse transform="matrix(0.7863 -0.6178 0.6178 0.7863 14.6243 86.2413)" class="tipBoxTop_1" cx="132" cy="22" rx="5.3" ry="5.3"/>
	</g>
	<circle class="tipBoxTop_2" cx="132" cy="22" r="4.1"/>
</g>
<g>
	<g>
		<ellipse transform="matrix(0.7863 -0.6178 0.6178 0.7863 12.0433 78.779)" class="tipBoxTop_1" cx="119.9" cy="22" rx="5.3" ry="5.3"/>
	</g>
	<circle class="tipBoxTop_2" cx="119.9" cy="22" r="4.1"/>
</g>
<g>
	<g>
		<ellipse transform="matrix(0.7863 -0.6178 0.6178 0.7863 9.4624 71.3167)" class="tipBoxTop_1" cx="107.8" cy="22" rx="5.3" ry="5.3"/>
	</g>
	<circle class="tipBoxTop_2" cx="107.8" cy="22" r="4.1"/>
</g>
<g>
	<g>
		<ellipse transform="matrix(0.7863 -0.6178 0.6178 0.7863 6.8815 63.8545)" class="tipBoxTop_1" cx="95.8" cy="22" rx="5.3" ry="5.3"/>
	</g>
	<circle class="tipBoxTop_2" cx="95.8" cy="22" r="4.1"/>
</g>
<g>
	<g>
		<ellipse transform="matrix(0.7863 -0.6178 0.6178 0.7863 -3.7495 9.0469)" class="tipBoxTop_1" cx="11.2" cy="9.9" rx="5.3" ry="5.3"/>
	</g>
	<circle class="tipBoxTop_2" cx="11.2" cy="9.9" r="4.1"/>
</g>
<g>
	<g>
		<ellipse transform="matrix(0.7863 -0.6178 0.6178 0.7863 11.7361 53.8205)" class="tipBoxTop_1" cx="83.7" cy="9.9" rx="5.3" ry="5.3"/>
	</g>
	<circle class="tipBoxTop_2" cx="83.7" cy="9.9" r="4.1"/>
</g>
<g>
	<g>
		<ellipse transform="matrix(0.7863 -0.6178 0.6178 0.7863 9.1552 46.3583)" class="tipBoxTop_1" cx="71.6" cy="9.9" rx="5.3" ry="5.3"/>
	</g>
	<circle class="tipBoxTop_2" cx="71.6" cy="9.9" r="4.1"/>
</g>
<g>
	<g>
		<ellipse transform="matrix(0.7863 -0.6178 0.6178 0.7863 6.5742 38.896)" class="tipBoxTop_1" cx="59.5" cy="9.9" rx="5.3" ry="5.3"/>
	</g>
	<circle class="tipBoxTop_2" cx="59.5" cy="9.9" r="4.1"/>
</g>
<g>
	<g>
		<ellipse transform="matrix(0.7863 -0.6178 0.6178 0.7863 3.9933 31.4337)" class="tipBoxTop_1" cx="47.4" cy="9.9" rx="5.3" ry="5.3"/>
	</g>
	<circle class="tipBoxTop_2" cx="47.4" cy="9.9" r="4.1"/>
</g>
<g>
	<g>
		<ellipse transform="matrix(0.7863 -0.6178 0.6178 0.7863 1.4124 23.9715)" class="tipBoxTop_1" cx="35.4" cy="9.9" rx="5.3" ry="5.3"/>
	</g>
	<circle class="tipBoxTop_2" cx="35.4" cy="9.9" r="4.1"/>
</g>
<g>
	<g>
		<ellipse transform="matrix(0.7863 -0.6178 0.6178 0.7863 -1.1685 16.5092)" class="tipBoxTop_1" cx="23.3" cy="9.9" rx="5.3" ry="5.3"/>
	</g>
	<circle class="tipBoxTop_2" cx="23.3" cy="9.9" r="4.1"/>
</g>
<g>
	<g>
		<ellipse transform="matrix(0.7863 -0.6178 0.6178 0.7863 24.6407 91.1319)" class="tipBoxTop_1" cx="144.1" cy="9.9" rx="5.3" ry="5.3"/>
	</g>
	<circle class="tipBoxTop_2" cx="144.1" cy="9.9" r="4.1"/>
</g>
<g>
	<g>
		<ellipse transform="matrix(0.7863 -0.6178 0.6178 0.7863 22.0598 83.6696)" class="tipBoxTop_1" cx="132" cy="9.9" rx="5.3" ry="5.3"/>
	</g>
	<circle class="tipBoxTop_2" cx="132" cy="9.9" r="4.1"/>
</g>
<g>
	<g>
		<ellipse transform="matrix(0.7863 -0.6178 0.6178 0.7863 19.4789 76.2073)" class="tipBoxTop_1" cx="119.9" cy="9.9" rx="5.3" ry="5.3"/>
	</g>
	<circle class="tipBoxTop_2" cx="119.9" cy="9.9" r="4.1"/>
</g>
<g>
	<g>
		<ellipse transform="matrix(0.7863 -0.6178 0.6178 0.7863 16.8979 68.7451)" class="tipBoxTop_1" cx="107.8" cy="9.9" rx="5.3" ry="5.3"/>
	</g>
	<circle class="tipBoxTop_2" cx="107.8" cy="9.9" r="4.1"/>
</g>
<g>
	<g>
		<ellipse transform="matrix(0.7863 -0.6178 0.6178 0.7863 14.317 61.2828)" class="tipBoxTop_1" cx="95.8" cy="9.9" rx="5.3" ry="5.3"/>
	</g>
	<circle class="tipBoxTop_2" cx="95.8" cy="9.9" r="4.1"/>
</g>
</svg>
