<?xml version="1.0" encoding="utf-8"?>
<!-- Generator: Adobe Illustrator 22.1.0, SVG Export Plug-In . SVG Version: 6.00 Build 0)  -->
<svg version="1.1"  xmlns="http://www.w3.org/2000/svg" xmlns:xlink="http://www.w3.org/1999/xlink" x="0px" y="0px"
	 viewBox="-100 -150 286.7 457.8"  xml:space="preserve">

<g class="Cap">
	<path class="tubeColor" d="M36.4,16.3c-6.4-0.1-10.7,0.6-17,2c-4,0.9-8.9,1.3-12.8,2.6c-1.2,0.4-2.5,1.6-2.3,3c0.1,1.6,1.8,2.8,3.2,2.8
		c4.4,1.2,9.1,1.4,13.8,1.7c7.3,0.4,14.7,0.4,22,0.4c4.3-0.2,8.8-0.7,12.6-2.7c1.8-1.4,2-4.2,1.1-6.2c-0.8-1.5-2.5-2.1-4.2-2.6
		C47.6,15.7,40.5,16.4,36.4,16.3z"/>
	<path class="tubeColor" d="M128.4,73.7l-28.6-0.1c-14.2,0-25.7-5.9-25.7-13.1l0.1-25.6c0.1-7.2,11.6-13,25.8-12.9l28.6,0.1
		c14.1,0,25.6,5.9,25.6,13.1l-0.1,25.6C154.1,68,142.6,73.7,128.4,73.7z"/>
	<path class="tubeColor" d="M162.5,32.4H65.8c-4.4,0-8.1-3.6-8.1-8.1v-4.5c0-4.4,3.6-8.1,8.1-8.1h96.6c4.4,0,8.1,3.6,8.1,8.1v4.6
		C170.6,28.8,166.9,32.4,162.5,32.4z"/>
</g>
<path class="tubeFluid" d="M159.4,226.6L159.4,226.6L159.4,226.6c0-6.6-20.2-11.8-45.1-11.7s-45,5.5-45,12.1H69h0.3c0,16.1,33.3,66.7,45.3,66.7
	C126.5,293.5,159.5,242.7,159.4,226.6L159.4,226.6L159.4,226.6z"/>
<path class="tubeColor" d="M162.6,32.4H65.9c-4.4,0-8.1-3.6-8.1-8.1v-4.5c0-4.4,3.6-8.1,8.1-8.1h96.6c4.4,0,8.1,3.6,8.1,8.1v4.6
	C170.7,28.8,167,32.4,162.6,32.4z"/>
<path class="tubeColor" d="M36.4,15.8c-6.4-0.1-10.7,0.6-17,2c-4,0.9-8.9,1.3-12.8,2.6c-1.2,0.4-2.5,1.6-2.3,3c0.1,1.6,1.8,2.8,3.2,2.8
	c4.4,1.2,9.1,1.4,13.8,1.7c7.3,0.4,14.7,0.4,22,0.4c4.3-0.2,8.8-0.7,12.6-2.7c1.8-1.4,2-4.2,1.1-6.2c-0.8-1.5-2.5-2.1-4.2-2.6
	C47.6,15.2,40.5,15.9,36.4,15.8z"/>
<path class="tubeColor opacity4" d="M66.3,32.4v199.2h0.3c-0.1,16.5,35,68.2,47.6,68.2s47.7-51.8,47.6-68.2h0.3V32.4H66.3z"/>
<path  class="tubeColor opacity3" d="M68.1,104h50.6v8.4H68L68.1,104L68.1,104z"/>
<path  class="tubeColor opacity3" d="M68.1,150.4h48.6v8.4H68L68.1,150.4L68.1,150.4z"/>
</svg>
