<?xml version="1.0" encoding="utf-8"?>
<!-- Generator: Adobe Illustrator 19.2.1, SVG Export Plug-In . SVG Version: 6.00 Build 0)  -->
<svg version="1.1" id="Layer_1" xmlns="http://www.w3.org/2000/svg" xmlns:xlink="http://www.w3.org/1999/xlink" x="0px" y="0px"
	 viewBox="0 0 483 160" style="enable-background:new 0 0 483 160;" xml:space="preserve">
<style type="text/css">
	.electroBoxSide_0{opacity:0.71;}
	.electroBoxSide_1{fill:#C7E5D1;stroke:#000000;stroke-miterlimit:10;}
	.electroBoxSide_2{fill:#C7E5D1;stroke:#000000;stroke-width:3;stroke-miterlimit:10;}
	.electroBoxSide_3{fill:#C7E5D1;stroke:#000000;stroke-width:0.5;stroke-miterlimit:10;}
	.electroBoxSide_4{fill:#C7E5D1;stroke:#000000;stroke-width:4;stroke-miterlimit:10;}
</style>
<g class="electroBoxSide_0">
	<path class="electroBoxSide_1" d="M164.4,67.1l-9,51.9c0,12.6-11.6,22.8-25.8,22.8H33.2C19,141.8,7.4,131.5,7.4,119V43.2h1l-1-32.4h157
		L164.4,67.1L164.4,67.1z"/>
	<polygon class="electroBoxSide_1" points="7.4,10.8 8.4,43.2 7.4,43.2 	"/>
	<path class="electroBoxSide_1" d="M473.6,43.2h0.9l-0.3,75.8c-0.1,12.6-11.8,22.8-26,22.7l-96.3-0.4c-14.2-0.1-25.8-10.4-25.7-23l-8.6-51.3
		l-0.1-0.6V10.8h157.1L473.6,43.2z"/>
	<polygon class="electroBoxSide_1" points="474.7,10.8 474.7,43.2 473.6,43.2 	"/>
	<line class="electroBoxSide_2" x1="8.4" y1="43.2" x2="7.4" y2="43.2"/>
	<path class="electroBoxSide_2" d="M7.4,10.8"/>
	<rect x="164.4" y="10.8" class="electroBoxSide_1" width="153.2" height="56.2"/>
	<polyline class="electroBoxSide_1" points="317.5,67.1 317.6,67.1 319.2,67.1 	"/>
	<path class="electroBoxSide_3" d="M450.2,150.9h-24c-0.3,0-0.6-0.3-0.6-0.6v-7.9c0-0.3,0.3-0.6,0.6-0.6h24c0.3,0,0.6,0.3,0.6,0.6v7.9
		C450.8,150.7,450.5,150.9,450.2,150.9z"/>
	<path class="electroBoxSide_3" d="M54.6,142.4v7.9c0,0.3-0.3,0.6-0.6,0.6H30c-0.3,0-0.6-0.3-0.6-0.6v-7.9c0-0.3,0.3-0.6,0.6-0.6h24
		C54.4,141.8,54.6,142.1,54.6,142.4z"/>
	<path class="electroBoxSide_2" d="M474.7,10.8"/>
	<path class="electroBoxSide_2" d="M474.5,43.2"/>
	<g>
		<path class="electroBoxSide_4" d="M317.5,67.1"/>
		<path class="electroBoxSide_4" d="M164.4,67.1"/>
	</g>
</g>
</svg>
