<?xml version="1.0" encoding="utf-8"?>
<!-- Generator: Adobe Illustrator 19.2.1, SVG Export Plug-In . SVG Version: 6.00 Build 0)  -->
<svg version="1.1" id="Layer_1" xmlns="http://www.w3.org/2000/svg" xmlns:xlink="http://www.w3.org/1999/xlink" x="0px" y="0px"
	 viewBox="0 0 314.4 364.3" style="enable-background:new 0 0 314.4 364.3;" xml:space="preserve">
<style type="text/css">
	.lidSide_0{fill:#404040;stroke:#000000;stroke-miterlimit:10;}
	.lidSide_1{fill:#E43F25;stroke:#EE3B25;stroke-miterlimit:10;}
	.lidSide_2{opacity:0.5;fill:#B7E3F3;stroke:#000000;stroke-miterlimit:10;enable-background:new    ;}
	.lidSide_3{opacity:0.35;fill:#B7E3F3;stroke:#000000;stroke-miterlimit:10;enable-background:new    ;}
	.lidSide_4{fill:#404040;}
	.lidSide_5{fill:#EE3B25;}
</style>
<g>
	<path class="lidSide_0" d="M99.3,296.7l22.7,0c1.3,0,2.4,1.2,2.4,2.7l0,0c0,1.5-1.1,2.7-2.4,2.7H99.3c-1.3,0-2.4-1.2-2.4-2.7l0,0
		C97,298,98,296.7,99.3,296.7z"/>
	<rect x="119.6" y="296.7" class="lidSide_0" width="4.9" height="5.4"/>
</g>
<g>
	<g>
		<path class="lidSide_1" d="M99.4,41.4h22c1.5,0,2.7,1.4,2.7,3.1l0,0c0,1.7-1.2,3.1-2.7,3.1h-22c-1.5,0-2.7-1.4-2.7-3.1l0,0
			C96.7,42.8,97.9,41.4,99.4,41.4z"/>
	</g>
	<rect x="119.3" y="41.3" class="lidSide_1" width="4.9" height="6.2"/>
</g>
<rect x="118.3" y="0" class="lidSide_2" width="196.1" height="364.3"/>
<rect x="118.1" y="0.1" class="lidSide_3" width="7.7" height="364.3"/>
<g>
	<g>
		<path class="lidSide_4" d="M96.5,297.1c-5.3,6.4-8.1,13.5-11.6,21.1c-1.8,3.9-4,8-8,9.2c-3.6,1.1-7.7-0.6-9.9-4.1
			c-4-6.5-2-15.6-7.7-21.2c-4.4-4.4-10-2.7-14.2,1c-5.8,5.3-9.8,13.7-14,20.5c-1.4,2.3-6.7,13.9-9.7,10.9c-2.7-2.6,0.7-11,1.6-13.9
			c1.2-4,4-13.2-2.3-13.7c-3-0.2-4.5,2.4-6.3,4.6c-3.2,3.8-7.3,5.1-11.7,3.7c-2.7-0.9-3.9,3.9-1.1,4.8c4.7,1.5,9.8,0.8,13.7-2.6
			c0.9-0.7,1.6-1.5,2.3-2.4c1.1-1.4,2.3-3.5,2.5-0.4c0.2,3-2.1,7.2-2.8,10.1c-1.2,5-1.6,11.4,2.4,14.9s7-0.2,9.4-3.9
			c4.3-6.9,8.6-13.9,12.9-20.9c4-6.3,12.9-17,17.1-4.5c2,5.9,1.6,12.7,5.6,17.5c3.1,3.6,7.7,5.4,12,4.7c5.3-0.9,9-5.4,11.4-10.5
			c3.7-7.5,6.2-15,11.5-21.4C101.6,298.3,98.5,294.8,96.5,297.1L96.5,297.1z"/>
	</g>
</g>
<g>
	<g>
		<path class="lidSide_5" d="M98.1,42.9C90,45.4,80.7,49.1,78,59.2c-1.6,5.9-1.4,12.7-1.8,18.9c-0.5,7.3-1.4,14.7-1.3,22.1
			c0.1,14.3,6.4,25.7,10.9,38.7c4.2,12.2,10.5,29.2,5.8,42.2c-2.1,5.9-6.2,10.6-10,15.1c-4.2,4.8-9,9.4-14.8,11.5
			c-8.4,3-18.5,0.9-25.8,7.3c-3.4,3.1-5.1,7.4-6.5,12c-1.9,6.4-3.9,13.2-3.9,20c0,4.6,0.9,9.5,3.1,13.4c2.9,5.2,8.4,6.9,8.7,13.7
			c0.2,3.8-0.5,7.6-2,11.1c-0.7,1.6-1.6,3.2-2.6,4.4c-0.4,0.5-0.9,0.9-1.3,1.4c-2.1,0.2-3.3-0.6-3.5-2.5c-1.2-1.9-1.4-3.7-3.5-4.9
			c-1.6-0.9-3.3-1.2-5.1-0.9c-4.7,0.6-7.6,4.7-9.8,8.9c-2.1,3.8-2.8,5.4-6.9,3.6c-2.1-0.8-3.7-1.4-5.6-0.5c-2.6,1.2-1.5,6,1.1,4.8
			c2-0.9,4.4,1.6,6.4,1.9c1.3,0.2,2.6,0,3.9-0.8c4.5-2.9,4.9-11.1,10.3-12.8c5.6-1.8,4.5,6.4,8.4,8.5c3.5,1.9,7.3-1.3,9.4-4.3
			c4.6-6.4,7.7-18.8,3.1-26.2c-1.4-2.2-3.6-3.3-5.3-5.1c-1.8-2-3-4.5-3.7-7.3c-1.9-7.2,0.1-14.9,2-21.8c1.8-6.6,3.8-12.5,9.8-15.1
			c4.6-1.9,9.6-1.9,14.3-2.7c9.7-1.6,17-7.4,23.7-15.3c7.8-9.1,12.9-18.7,11.6-31.9s-5.9-26.4-10.7-38.4c-3-7.3-6.2-14.4-7-22.6
			c-0.7-7.9,0.2-15.9,0.8-23.8c0.3-4,0.6-8.1,0.9-12.1c0.4-4.3,0.4-9,2.6-12.6c3.4-5.7,10.1-7.6,15.6-9.3
			C102,46.9,100.8,42.1,98.1,42.9L98.1,42.9z"/>
	</g>
</g>
</svg>
