<?xml version="1.0" encoding="utf-8"?>
<!-- Generator: Adobe Illustrator 19.2.1, SVG Export Plug-In . SVG Version: 6.00 Build 0)  -->
<svg version="1.1" id="Layer_1" xmlns="http://www.w3.org/2000/svg" xmlns:xlink="http://www.w3.org/1999/xlink" x="0px" y="0px"
	 viewBox="0 0 251.4 53.9" style="enable-background:new 0 0 251.4 53.9;" xml:space="preserve">
<style type="text/css">
	.stainedGel_0{fill:#405EAB;}
	.stainedGel_1{fill:#FFFFFF;stroke:#000000;stroke-miterlimit:10;}
	.stainedGel_2{opacity:0.6;fill:#3B80C2;stroke:#020202;stroke-miterlimit:10;enable-background:new    ;}
</style>
<path class="stainedGel_0" d="M247.6,11.7L226,44.9c-2.7,10.2-17.6,8.8-29.1,8.8H63.7c-11.5,0-36.9,2.6-42.1-8L2.3,11.7
	C2.3,5.3,11.6,0,23.1,0h203.6C238.2,0,247.6,5.3,247.6,11.7z"/>
<path class="stainedGel_1" d="M251.4,5v2.7c0,2.5-2.1,4.6-4.6,4.6H4.6C2.1,12.3,0,10.2,0,7.6V5c0-2.5,2.1-4.6,4.6-4.6h242.1
	C249.3,0.3,251.4,2.4,251.4,5z"/>
<rect x="35.5" y="33.6" class="stainedGel_2" width="180.5" height="17.1"/>
</svg>
