<?xml version="1.0" encoding="utf-8"?>
<!-- Generator: Adobe Illustrator 19.2.1, SVG Export Plug-In . SVG Version: 6.00 Build 0)  -->
<svg version="1.1" id="Layer_1" xmlns="http://www.w3.org/2000/svg" xmlns:xlink="http://www.w3.org/1999/xlink" x="0px" y="0px"
	 viewBox="0 0 195 129" style="enable-background:new 0 0 195 129;" xml:space="preserve">
<style type="text/css">
	.wasteBinTop_0{fill:#4265B0;stroke:#000000;stroke-miterlimit:10;}
	.wasteBinTop_1{fill:#1F3567;stroke:#000000;stroke-miterlimit:10;}
	.wasteBinTop_2{fill:none;stroke:#000000;stroke-miterlimit:10;}
	.wasteBinTop_3{fill:#192853;stroke:#000000;stroke-miterlimit:10;}
	.wasteBinTop_4{fill:#FFFFFF;}
	.wasteBinTop_5{font-family:'MyriadPro-Regular';}
	.wasteBinTop_6{font-size:31.4299px;}
</style>
<rect x="11" y="4.5" class="wasteBinTop_0" width="173" height="118"/>
<rect x="44.7" y="27.5" class="wasteBinTop_1" width="105.6" height="72"/>
<line class="wasteBinTop_2" x1="11" y1="4.5" x2="44.7" y2="27.5"/>
<line class="wasteBinTop_2" x1="150.3" y1="27.5" x2="184" y2="4.5"/>
<line class="wasteBinTop_2" x1="11" y1="122.5" x2="44.7" y2="99.5"/>
<line class="wasteBinTop_2" x1="184" y1="122.5" x2="150.3" y2="99.5"/>
<path class="wasteBinTop_0" d="M183,129H12c-6.6,0-12-5.4-12-12V12C0,5.4,5.4,0,12,0h171c6.6,0,12,5.4,12,12v105C195,123.6,189.6,129,183,129z
	"/>
<path class="wasteBinTop_3" d="M152.5,64.5h-108c-5.2,0-9.5-4.3-9.5-9.5v0c0-5.2,4.3-9.5,9.5-9.5h108c5.2,0,9.5,4.3,9.5,9.5v0
	C162,60.2,157.7,64.5,152.5,64.5z"/>
<text transform="matrix(1 0 0 1 60.3579 99.5)" class="wasteBinTop_4 wasteBinTop_5 wasteBinTop_6">Waste</text>
</svg>
